<?xml version="1.0" encoding="UTF-8" standalone="no"?>
<svg
   xmlns:dc="http://purl.org/dc/elements/1.1/"
   xmlns:cc="http://creativecommons.org/ns#"
   xmlns:rdf="http://www.w3.org/1999/02/22-rdf-syntax-ns#"
   xmlns:svg="http://www.w3.org/2000/svg"
   xmlns="http://www.w3.org/2000/svg"
   xmlns:sodipodi="http://sodipodi.sourceforge.net/DTD/sodipodi-0.dtd"
   xmlns:inkscape="http://www.inkscape.org/namespaces/inkscape"
   version="1.1"
   id="Layer_1"
   x="0px"
   y="0px"
   viewBox="251.344 34.688 1000 699.99999"
   enable-background="new 251.344 34.688 2139.543 1600.452"
   xml:space="preserve"
   sodipodi:docname="communication.svg"
   width="1000"
   height="700"
   inkscape:version="0.92.3 (2405546, 2018-03-11)"><metadata
   id="metadata39"><rdf:RDF><cc:Work
       rdf:about=""><dc:format>image/svg+xml</dc:format><dc:type
         rdf:resource="http://purl.org/dc/dcmitype/StillImage" /><dc:title></dc:title></cc:Work></rdf:RDF></metadata><defs
   id="defs37" /><sodipodi:namedview
   pagecolor="#ffffff"
   bordercolor="#666666"
   borderopacity="1"
   objecttolerance="10"
   gridtolerance="10"
   guidetolerance="10"
   inkscape:pageopacity="0"
   inkscape:pageshadow="2"
   inkscape:window-width="1920"
   inkscape:window-height="1018"
   id="namedview35"
   showgrid="false"
   inkscape:zoom="0.83415034"
   inkscape:cx="695.61149"
   inkscape:cy="270.56936"
   inkscape:window-x="-8"
   inkscape:window-y="-8"
   inkscape:window-maximized="1"
   inkscape:current-layer="Layer_1" />
<g
   id="g32"
   transform="matrix(0.41290641,0,0,0.41290641,186.1446,28.152673)">
	<path
   d="m 678.46,97.239 c 19.324,-6.012 39.46,-9.437 59.689,-10.035 24.732,-0.235 49.47,-0.015 74.202,-0.107 51.499,0.01 102.999,0.02 154.503,-0.005 36.741,0.041 73.482,0.005 110.222,0.015 39.368,-0.005 78.737,-0.01 118.105,0.005 32.723,-0.015 65.45,0.015 98.173,-0.015 36.802,0.01 73.599,0.02 110.401,-0.005 6.359,0.061 12.724,-0.107 19.078,0.245 26.455,1.186 52.67,7.193 77.05,17.529 34.752,14.672 65.599,38.065 89.932,66.82 24.906,29.492 42.983,64.571 53.12,101.787 3.854,14.656 6.682,29.594 8.144,44.685 1.212,12.065 1.503,24.196 1.416,36.306 0.026,14.713 -0.051,29.425 0.036,44.138 -0.036,39.68 -0.046,79.36 0.01,119.036 -0.164,11.252 0.097,22.504 -0.138,33.755 -0.787,-0.695 -1.554,-1.396 -2.316,-2.086 0.342,-12.458 0.102,-24.927 0.133,-37.39 -0.01,-55.38 0.026,-110.759 0.031,-166.144 0.021,-41.178 -9.273,-82.387 -27.442,-119.373 -17.54,-35.872 -43.407,-67.776 -75.45,-91.686 -22.999,-17.126 -49.122,-30.156 -76.825,-37.666 -18.404,-5.046 -37.467,-7.545 -56.535,-7.842 -223.911,0.026 -447.821,-0.015 -671.732,0.02 -22.509,0.506 -45.028,4.008 -66.391,11.206 -32.171,10.526 -61.739,28.536 -86.369,51.704 -27.769,25.934 -49.393,58.314 -63.283,93.659 -12.652,31.884 -18.899,66.212 -18.935,100.489 0.005,333.484 0,666.963 0.005,1000.441 -0.051,12.857 -0.138,25.734 1.109,38.545 4.892,57.532 28.653,113.56 67.838,156.114 2.74,2.709 5.173,5.71 7.934,8.409 12.883,12.55 26.936,23.96 42.236,33.448 7.612,4.908 15.704,9.002 23.828,12.985 28.643,13.69 60.297,20.949 92.028,21.409 221.866,0.046 443.732,0 665.603,0.021 23.051,0.312 46.214,-2.663 68.283,-9.417 35.151,-10.546 67.536,-29.906 93.92,-55.354 26.716,-25.484 47.517,-56.98 61.085,-91.277 12.821,-32.217 19.242,-66.928 19.099,-101.593 -0.031,-52.997 -0.01,-105.99 -0.01,-158.987 0.026,-52.041 -0.061,-104.083 0.066,-156.119 0.394,1.161 1.109,2.183 2.111,2.924 0.148,9.611 -0.041,19.227 0.097,28.843 -0.204,78.088 0.015,156.175 -0.051,234.263 0.01,4.11 -0.056,8.225 0.087,12.341 -0.01,0.215 -0.01,0.649 -0.01,0.864 -0.174,13.69 0.087,27.391 -0.133,41.086 -0.475,35.146 -7.724,70.189 -21.343,102.595 -15.096,35.769 -38.09,68.252 -67.255,93.915 -30.632,26.946 -68.237,46.127 -108.351,53.923 -10.633,2.029 -21.404,3.405 -32.222,3.906 -11.932,0.516 -23.879,0.184 -35.821,0.276 -11.078,0 -22.156,0 -33.229,0 -40.079,-0.026 -80.153,0.015 -120.227,-0.021 -34.563,0.046 -69.131,0.021 -103.694,0.01 -45.15,0 -90.3,0 -135.451,0 -40.007,0.021 -80.015,0 -120.022,0.01 -42.303,-0.031 -84.606,-0.01 -126.903,-0.01 -18.214,0.138 -36.47,-1.769 -54.194,-6.017 -39.931,-9.324 -76.866,-30.049 -106.613,-58.155 -26.45,-25.106 -47.405,-55.901 -61.284,-89.61 -8.118,-19.605 -13.869,-40.171 -17.218,-61.12 -2.019,-12.826 -3.18,-25.791 -3.384,-38.77 -0.02,-31.036 0.031,-62.071 -0.026,-93.102 0.026,-51.811 0.026,-103.623 0,-155.434 0.041,-36.623 0.041,-73.246 0,-109.87 0.026,-42.937 0.031,-85.868 -0.005,-128.8 0.051,-34.399 0.036,-68.804 0.01,-103.203 0.01,-42.932 0.036,-85.868 -0.01,-128.8 0.051,-36.623 0.041,-73.246 0.005,-109.87 0.036,-63.774 0.005,-127.547 0.015,-191.321 -0.128,-12.929 0.925,-25.837 2.597,-38.653 5.603,-39.829 20.019,-78.425 42.308,-111.94 8.9,-13.21 18.889,-25.709 30.064,-37.068 27.163,-27.868 61.098,-49.252 98.299,-60.867 z"
   id="path2"
   inkscape:connector-curvature="0"
   style="fill:#010a06;stroke:#010a06;stroke-width:0.5" />
	<path
   d="m 675.878,100.434 c 21.364,-7.198 43.882,-10.7 66.391,-11.206 223.911,-0.036 447.821,0.005 671.732,-0.02 19.068,0.297 38.131,2.796 56.535,7.842 27.703,7.51 53.825,20.54 76.825,37.666 32.043,23.909 57.91,55.814 75.45,91.686 18.168,36.986 27.462,78.195 27.442,119.373 0,55.385 -0.041,110.764 -0.031,166.144 -0.031,12.463 0.209,24.932 -0.133,37.39 -13.107,-11.395 -26.496,-22.585 -41.199,-31.879 -7.556,-4.683 -15.49,-9.13 -24.242,-11.073 -4.821,-1.012 -10.429,-0.992 -14.406,2.311 -2.413,1.83 -3.665,4.637 -5.035,7.239 -13.808,21.742 -23.046,46.597 -25.392,72.321 -0.118,-96.665 -0.021,-193.33 -0.051,-289.995 -0.051,-7.658 0.184,-15.336 -0.404,-22.979 -1.298,-16.282 -6.728,-32.191 -15.561,-45.922 -14.35,-22.498 -37.988,-38.878 -64.172,-44.169 -8.936,-1.953 -18.107,-2.249 -27.217,-2.076 -244.702,0 -489.403,0 -734.1,0 -8.103,-0.072 -16.251,-0.102 -24.252,1.324 -19.768,3.205 -38.469,12.576 -52.916,26.435 -13.348,12.663 -23.117,29.067 -27.815,46.863 -2.249,8.369 -3.318,17.039 -3.394,25.699 0,345.748 0,691.501 0,1037.248 0.174,11.221 -0.603,22.524 1.109,33.668 2.571,17.616 9.994,34.481 21.205,48.309 11.564,14.375 27.171,25.469 44.567,31.629 10.02,3.568 20.617,5.516 31.25,5.756 250.161,0.01 500.318,-0.01 750.474,0 20.944,0.255 41.868,-6.395 58.897,-18.578 20.965,-14.84 35.887,-37.968 40.529,-63.252 2.239,-11.18 1.738,-22.626 1.8,-33.96 0,-223.062 0,-446.119 0,-669.176 0.061,-16.737 -0.128,-33.474 0.102,-50.206 1.007,17.928 7.091,35.478 17.187,50.308 5.051,7.566 11.293,14.212 17.391,20.924 12.187,13.215 25.049,25.883 39.256,36.93 7.034,5.414 14.406,10.449 22.371,14.406 4.478,2.157 9.141,4.115 14.104,4.78 0.123,93.056 0.01,186.117 0.046,279.173 0.077,11.18 -0.179,22.36 0.092,33.541 -0.128,52.036 -0.041,104.078 -0.066,156.119 0,52.997 -0.02,105.99 0.01,158.987 0.143,34.665 -6.278,69.376 -19.099,101.593 -13.568,34.297 -34.369,65.793 -61.085,91.277 -26.384,25.448 -58.769,44.808 -93.92,55.354 -22.069,6.753 -45.232,9.728 -68.283,9.417 -221.871,-0.021 -443.737,0.026 -665.603,-0.021 -31.731,-0.46 -63.385,-7.719 -92.028,-21.409 -8.123,-3.982 -16.216,-8.077 -23.828,-12.985 -15.301,-9.488 -29.354,-20.898 -42.236,-33.448 -2.761,-2.699 -5.194,-5.7 -7.934,-8.409 -39.184,-42.553 -62.945,-98.582 -67.838,-156.114 -1.247,-12.811 -1.16,-25.688 -1.109,-38.545 -0.005,-333.479 0,-666.957 -0.005,-1000.441 0.036,-34.277 6.283,-68.605 18.935,-100.489 13.89,-35.345 35.514,-67.725 63.283,-93.659 24.632,-23.17 54.2,-41.18 86.371,-51.706 m 287.383,1372.148 c -0.118,1.314 -0.107,2.643 -0.092,3.988 -0.015,28.459 0,56.918 -0.01,85.377 0.031,2.464 -0.21,4.959 0.215,7.418 1.938,0.332 3.916,0.179 5.879,0.199 28.117,0 56.233,-0.01 84.35,0 26.384,-0.056 52.772,0.092 79.156,-0.077 0.383,-3.359 0.082,-6.738 0.169,-10.101 0,-23.173 0,-46.346 0,-69.525 -0.102,-5.772 0.204,-11.553 -0.138,-17.31 -8.149,-0.373 -16.328,-0.056 -24.487,-0.159 -42.942,0 -85.883,0 -128.825,0 -5.405,0.119 -10.829,-0.249 -16.217,0.185 z"
   id="path4"
   inkscape:connector-curvature="0"
   style="fill:#232227;stroke:#232227;stroke-width:0.5" />
	<path
   d="m 674.058,184.411 c 8,-1.426 16.149,-1.396 24.252,-1.324 244.697,0 489.398,0 734.1,0 9.11,-0.174 18.281,0.123 27.217,2.076 26.184,5.291 49.823,21.67 64.172,44.169 8.834,13.731 14.263,29.64 15.561,45.922 0.588,7.643 0.353,15.321 0.404,22.979 0.031,96.665 -0.066,193.33 0.051,289.995 -0.189,5.536 -0.353,11.088 0.051,16.625 -0.23,16.732 -0.041,33.469 -0.102,50.206 0,223.057 0,446.114 0,669.176 -0.061,11.334 0.44,22.78 -1.8,33.96 -4.642,25.284 -19.564,48.412 -40.529,63.252 -17.029,12.182 -37.952,18.833 -58.897,18.578 -250.156,-0.01 -500.313,0 -750.474,-0.01 -10.633,-0.24 -21.231,-2.188 -31.25,-5.756 -17.397,-6.16 -33.004,-17.253 -44.567,-31.629 -11.211,-13.828 -18.634,-30.693 -21.205,-48.309 -1.713,-11.145 -0.936,-22.447 -1.109,-33.668 0,-345.748 0,-691.501 0,-1037.249 0.077,-8.66 1.145,-17.33 3.394,-25.699 4.698,-17.795 14.467,-34.2 27.815,-46.863 14.447,-13.86 33.147,-23.231 52.916,-26.436 m 312.785,253.131 c -25.739,3.348 -51.264,8.363 -76.324,15.117 -79.228,21.22 -153.737,59.612 -217.255,111.475 -6.206,5.173 -12.545,10.229 -18.404,15.791 2.306,3.221 5.219,5.981 7.75,9.033 14.324,16.175 28.659,32.344 42.962,48.539 0.404,0.414 0.792,0.9 1.355,1.14 12.714,-11.042 25.786,-21.706 39.476,-31.532 32.672,-23.644 68.18,-43.376 105.534,-58.575 42.277,-17.223 86.911,-28.664 132.276,-33.806 24.722,-2.893 49.654,-3.722 74.53,-3.011 47.665,1.554 95.136,9.856 140.445,24.778 78.553,25.663 150.419,71.207 207.542,130.88 6.048,6.135 11.661,12.678 17.499,19.007 1.339,-0.649 2.341,-1.799 3.481,-2.74 15.347,-13.276 30.678,-26.573 46.045,-39.834 3.21,-2.955 6.753,-5.557 9.795,-8.691 -2.275,-3.154 -5.076,-5.889 -7.612,-8.829 -33.019,-36.608 -70.614,-69.095 -111.7,-96.348 -54.321,-36.127 -114.757,-63.048 -177.978,-79.161 -47.814,-12.131 -97.176,-18.404 -146.523,-17.887 -24.37,-0.182 -48.729,1.582 -72.894,4.654 M 873.967,633.878 c -34.261,16.885 -66.299,38.346 -94.809,63.758 0.639,1.406 1.851,2.428 2.837,3.589 15.071,16.967 30.075,33.99 45.135,50.963 1.309,1.447 2.464,3.062 4.039,4.253 3.103,-2.408 5.951,-5.128 9.018,-7.576 47.502,-39.46 105.683,-65.997 166.701,-75.634 26.731,-4.31 53.958,-5.296 80.956,-3.4 40.232,2.939 79.928,13 116.694,29.604 46.122,20.745 87.53,51.755 120.656,89.943 2.418,-1.503 4.35,-3.645 6.574,-5.414 16.451,-14.227 32.881,-28.469 49.337,-42.691 1.166,-1.084 2.566,-1.968 3.451,-3.323 -2.561,-3.297 -5.475,-6.293 -8.266,-9.391 -46.214,-50.359 -104.589,-89.549 -168.874,-112.84 -41.101,-14.994 -84.554,-23.475 -128.258,-25.213 -13.634,-0.271 -27.288,-0.404 -40.907,0.317 -56.914,3.094 -113.183,17.801 -164.284,43.055 M 982.748,759.57 c -36.567,11.339 -70.685,30.611 -99.236,56.121 2.137,2.847 4.693,5.363 6.988,8.087 13.931,15.725 27.851,31.455 41.771,47.185 1.058,1.109 1.907,2.484 3.236,3.313 2.372,-1.646 4.361,-3.778 6.697,-5.485 22.785,-18.506 49.894,-31.675 78.568,-37.988 37.303,-8.215 77.121,-5.102 112.518,9.355 26.246,10.557 49.991,27.145 69.131,47.962 1.334,1.38 2.449,3.006 4.013,4.161 6.288,-5.107 12.284,-10.587 18.455,-15.837 9.58,-8.312 19.211,-16.568 28.766,-24.906 3.916,-3.512 8.118,-6.722 11.85,-10.419 -1.891,-2.745 -4.35,-5.02 -6.533,-7.51 -17.852,-19.124 -38.443,-35.688 -60.988,-48.959 -27.294,-16.103 -57.47,-27.289 -88.664,-32.866 -42.012,-7.474 -85.803,-4.897 -126.572,7.786 m 91.527,162.708 c -18.312,2.04 -35.984,9.457 -50.13,21.287 -12.76,10.577 -22.698,24.554 -28.367,40.135 -5.899,15.97 -7.29,33.551 -4.131,50.272 2.648,14.099 8.573,27.57 17.197,39.031 7.361,9.805 16.635,18.184 27.156,24.482 17.248,10.408 37.886,14.927 57.91,12.898 17.719,-1.651 34.88,-8.573 48.867,-19.559 13.839,-10.776 24.569,-25.499 30.581,-41.981 7.832,-21.318 7.637,-45.467 -0.614,-66.631 -8.425,-22.043 -25.504,-40.611 -46.74,-50.891 -15.928,-7.841 -34.092,-10.888 -51.729,-9.043 z"
   id="path6"
   inkscape:connector-curvature="0"
   style="fill:#ffffff;stroke:#ffffff;stroke-width:0.5" />
	<path
   d="m 986.843,437.542 c 24.165,-3.072 48.524,-4.836 72.894,-4.652 49.347,-0.516 98.71,5.756 146.523,17.887 63.222,16.113 123.657,43.034 177.978,79.161 41.086,27.253 78.681,59.74 111.7,96.348 2.536,2.939 5.337,5.674 7.612,8.829 -3.042,3.134 -6.584,5.736 -9.795,8.691 -15.367,13.261 -30.698,26.557 -46.045,39.834 -1.14,0.941 -2.142,2.091 -3.481,2.74 -5.838,-6.329 -11.451,-12.872 -17.499,-19.007 -57.123,-59.674 -128.989,-105.218 -207.542,-130.88 -45.309,-14.922 -92.78,-23.224 -140.445,-24.778 -24.875,-0.711 -49.807,0.118 -74.53,3.011 -45.365,5.143 -89.999,16.584 -132.276,33.806 -37.354,15.198 -72.863,34.931 -105.534,58.575 -13.69,9.825 -26.762,20.489 -39.476,31.532 -0.562,-0.24 -0.951,-0.726 -1.355,-1.14 -14.304,-16.195 -28.638,-32.365 -42.962,-48.539 -2.531,-3.052 -5.444,-5.813 -7.75,-9.033 5.859,-5.562 12.198,-10.618 18.404,-15.791 63.518,-51.862 138.027,-90.254 217.255,-111.475 25.06,-6.755 50.584,-11.77 76.324,-15.119 z"
   id="path8"
   inkscape:connector-curvature="0"
   style="fill:#30bbda;stroke:#30bbda;stroke-width:0.5" />
	<path
   d="m 1570.243,508.667 c 3.977,-3.302 9.585,-3.323 14.406,-2.311 8.752,1.943 16.686,6.39 24.242,11.073 14.702,9.294 28.091,20.484 41.199,31.879 0.762,0.69 1.528,1.39 2.316,2.086 3.103,2.566 5.741,5.628 8.808,8.236 2.929,2.203 5.47,4.857 8.149,7.356 18.705,17.724 36.623,36.255 54.362,54.94 5.726,6.191 11.318,12.509 17.187,18.572 6.385,7.259 12.959,14.35 19.39,21.573 19.16,21.599 38.034,43.443 56.52,65.624 1.099,1.426 2.301,2.776 3.446,4.187 1.401,1.677 1.697,3.921 2.188,5.986 3.778,16.732 7.873,33.392 11.615,50.135 6.426,26.926 12.555,53.923 18.946,80.858 5.536,24.134 11.277,48.228 16.829,72.362 2.883,12.065 5.623,24.16 8.496,36.224 0.588,2.316 0.854,4.724 1.764,6.958 3.957,1.718 8.215,2.628 12.274,4.095 6.083,1.907 12.126,3.957 18.245,5.761 1.171,0.337 2.541,0.731 2.914,2.081 -2.249,3.348 -3.522,7.208 -5.276,10.812 -54.168,119.48 -108.382,238.94 -162.56,358.416 -1.396,2.817 -2.413,5.833 -4.039,8.537 -0.71,-0.22 -1.36,-0.562 -1.948,-0.941 -3.083,-2.571 -6.416,-4.81 -9.672,-7.136 -17.008,-12.126 -34.001,-24.277 -50.993,-36.419 -8.317,-5.884 -16.512,-11.937 -24.922,-17.683 -0.71,-4.56 -0.143,-9.192 -0.501,-13.772 -0.061,-19.774 -0.051,-39.547 -0.066,-59.316 -0.603,-12.77 0.066,-25.556 -0.435,-38.32 0.164,-7.162 -0.383,-14.314 -0.235,-21.471 -0.112,-12.1 -0.031,-24.196 -0.087,-36.296 -0.307,-13.123 0.148,-26.246 -0.113,-39.363 -0.077,-8.905 0.215,-17.816 -0.169,-26.711 -0.138,-9.616 0.051,-19.232 -0.097,-28.843 -0.051,-26.808 -0.143,-53.621 -0.194,-80.429 0.026,-15.341 -0.225,-30.678 -0.123,-46.014 -0.337,-12.949 0.077,-25.903 -0.266,-38.847 0.046,-29.139 -0.286,-58.273 -0.24,-87.412 -0.256,-11.584 -0.082,-23.173 -0.148,-34.762 -0.342,-9.319 0.118,-18.659 -0.245,-27.968 -0.256,-0.051 -0.772,-0.153 -1.033,-0.204 -4.964,-0.665 -9.626,-2.622 -14.104,-4.78 -7.965,-3.957 -15.336,-8.992 -22.371,-14.406 -14.207,-11.047 -27.069,-23.715 -39.256,-36.93 -6.099,-6.712 -12.341,-13.358 -17.391,-20.924 -10.096,-14.83 -16.18,-32.38 -17.187,-50.308 -0.404,-5.536 -0.24,-11.088 -0.051,-16.625 2.346,-25.724 11.584,-50.579 25.392,-72.321 1.368,-2.602 2.621,-5.409 5.034,-7.239 z"
   id="path10"
   inkscape:connector-curvature="0"
   style="fill:#e4be99;stroke:#e4be99;stroke-width:0.5" />
	<path
   d="m 873.967,633.878 c 51.101,-25.254 107.37,-39.961 164.283,-43.054 13.619,-0.721 27.273,-0.588 40.907,-0.317 43.703,1.738 87.156,10.219 128.258,25.213 64.285,23.291 122.66,62.48 168.874,112.84 2.791,3.098 5.705,6.094 8.266,9.391 -0.884,1.355 -2.285,2.239 -3.451,3.323 -16.456,14.222 -32.886,28.464 -49.337,42.691 -2.224,1.769 -4.156,3.911 -6.574,5.414 -33.126,-38.188 -74.535,-69.198 -120.656,-89.943 -36.766,-16.604 -76.462,-26.665 -116.694,-29.604 -26.997,-1.897 -54.224,-0.91 -80.955,3.4 -61.018,9.636 -119.199,36.173 -166.701,75.634 -3.067,2.449 -5.915,5.168 -9.018,7.576 -1.575,-1.191 -2.73,-2.807 -4.039,-4.253 -15.06,-16.972 -30.064,-33.996 -45.135,-50.963 -0.987,-1.16 -2.198,-2.183 -2.837,-3.589 28.51,-25.413 60.548,-46.873 94.809,-63.759 z"
   id="path12"
   inkscape:connector-curvature="0"
   style="fill:#30bbda;stroke:#30bbda;stroke-width:0.5" />
	<path
   d="m 1650.176,732.2 c 0.261,0.051 0.777,0.153 1.033,0.204 0.363,9.309 -0.097,18.649 0.245,27.968 0.066,11.589 -0.107,23.178 0.148,34.762 -0.046,29.139 0.286,58.273 0.24,87.412 0.342,12.944 -0.072,25.898 0.266,38.847 -0.102,15.336 0.148,30.673 0.123,46.014 0.051,26.808 0.143,53.621 0.194,80.429 -1.002,-0.741 -1.718,-1.764 -2.111,-2.924 -0.271,-11.18 -0.015,-22.36 -0.092,-33.541 -0.036,-93.055 0.076,-186.116 -0.046,-279.171 z"
   id="path14"
   inkscape:connector-curvature="0"
   style="fill:#060807;stroke:#060807;stroke-width:0.5" />
	<path
   d="m 982.748,759.57 c 40.769,-12.683 84.56,-15.26 126.571,-7.786 31.194,5.577 61.371,16.763 88.664,32.866 22.544,13.271 43.136,29.834 60.988,48.959 2.183,2.49 4.642,4.764 6.533,7.51 -3.732,3.696 -7.934,6.906 -11.85,10.419 -9.555,8.338 -19.186,16.594 -28.766,24.906 -6.17,5.25 -12.167,10.73 -18.455,15.837 -1.564,-1.155 -2.679,-2.781 -4.013,-4.161 -19.14,-20.817 -42.885,-37.405 -69.131,-47.962 -35.396,-14.457 -75.215,-17.57 -112.518,-9.355 -28.674,6.313 -55.783,19.482 -78.568,37.988 -2.336,1.707 -4.325,3.839 -6.697,5.485 -1.329,-0.828 -2.178,-2.203 -3.236,-3.313 -13.92,-15.73 -27.841,-31.46 -41.771,-47.185 -2.295,-2.725 -4.851,-5.24 -6.988,-8.087 28.552,-25.51 62.67,-44.782 99.237,-56.121 z"
   id="path16"
   inkscape:connector-curvature="0"
   style="fill:#30bbda;stroke:#30bbda;stroke-width:0.5" />
	<path
   d="m 1074.275,922.278 c 17.637,-1.845 35.8,1.201 51.729,9.043 21.236,10.28 38.315,28.848 46.74,50.891 8.251,21.164 8.445,45.314 0.614,66.631 -6.012,16.481 -16.742,31.204 -30.581,41.981 -13.987,10.986 -31.148,17.908 -48.867,19.559 -20.024,2.029 -40.662,-2.49 -57.91,-12.898 -10.521,-6.298 -19.794,-14.677 -27.156,-24.482 -8.624,-11.461 -14.549,-24.932 -17.197,-39.031 -3.159,-16.722 -1.769,-34.302 4.131,-50.273 5.669,-15.582 15.607,-29.558 28.367,-40.135 14.146,-11.828 31.819,-19.246 50.13,-21.286 z"
   id="path18"
   inkscape:connector-curvature="0"
   style="fill:#30bbda;stroke:#30bbda;stroke-width:0.5" />
	<path
   d="m 1908.261,1007.155 c 1.753,-3.604 3.026,-7.464 5.276,-10.812 2.602,1.171 5.383,1.886 8.103,2.766 19.809,6.334 39.655,12.54 59.433,18.971 -52.435,118.826 -104.942,237.621 -157.407,356.432 -3.722,8.481 -7.443,16.967 -11.477,25.31 -2.275,3.492 -3.911,7.336 -5.874,11.006 -2.5,5.015 -5.25,9.917 -7.525,15.05 -0.373,0.429 -0.716,0.89 -1.048,1.36 -4.182,-1.099 -8.149,-2.898 -12.264,-4.197 -17.381,-6.14 -34.757,-12.274 -52.138,-18.398 -2.234,-0.859 -4.616,-1.38 -6.661,-2.643 4.156,-9.687 8.655,-19.242 13.036,-28.832 0.588,0.378 1.237,0.721 1.948,0.941 1.626,-2.704 2.643,-5.72 4.039,-8.537 54.177,-119.477 108.391,-238.937 162.559,-358.417 z"
   id="path20"
   inkscape:connector-curvature="0"
   style="fill:#fbfdfc;stroke:#fbfdfc;stroke-width:0.5" />
	<path
   d="m 1652.522,1076.68 c 0.383,8.895 0.092,17.806 0.169,26.711 0.261,13.118 -0.194,26.241 0.113,39.363 0.056,12.1 -0.026,24.196 0.087,36.296 -0.148,7.157 0.399,14.309 0.235,21.471 0.501,12.765 -0.169,25.55 0.435,38.32 0.015,19.768 0.01,39.542 0.066,59.316 0.358,4.58 -0.209,9.212 0.501,13.772 -0.435,-0.092 -0.854,-0.159 -1.252,-0.204 -0.215,3.844 0.143,7.714 -0.317,11.559 -0.143,-4.115 -0.077,-8.231 -0.087,-12.341 0.066,-78.088 -0.154,-156.176 0.05,-234.263 z"
   id="path22"
   inkscape:connector-curvature="0"
   style="fill:#74ac7f;stroke:#74ac7f;stroke-width:0.5" />
	<path
   d="m 1806.315,1410.828 c 1.963,-3.67 3.599,-7.515 5.874,-11.006 -1.084,3.497 -2.781,6.758 -4.182,10.137 -2.387,5.311 -4.683,10.664 -7.065,15.98 -0.22,-0.424 -0.419,-0.838 -0.593,-1.232 -0.537,0.368 -1.089,0.721 -1.559,1.171 2.275,-5.133 5.025,-10.035 7.525,-15.05 z"
   id="path24"
   inkscape:connector-curvature="0"
   style="fill:#5cb586;stroke:#5cb586;stroke-width:0.5" />
	<path
   d="m 963.261,1472.582 c 5.388,-0.435 10.812,-0.066 16.216,-0.184 42.942,0 85.884,0 128.825,0 8.159,0.102 16.338,-0.215 24.487,0.159 0.343,5.756 0.036,11.538 0.138,17.31 0,23.178 0,46.351 0,69.525 -0.087,3.364 0.215,6.743 -0.169,10.101 -26.384,0.169 -52.772,0.021 -79.156,0.077 -28.117,-0.01 -56.233,0 -84.35,0 -1.963,-0.02 -3.941,0.133 -5.879,-0.199 -0.424,-2.459 -0.184,-4.954 -0.215,-7.418 0.01,-28.459 -0.005,-56.918 0.01,-85.377 -0.015,-1.346 -0.025,-2.675 0.093,-3.989 m 2.269,1.979 c -0.245,3.384 -0.036,6.789 -0.097,10.193 0.061,27.483 -0.123,54.976 0.092,82.458 11.456,0.209 22.933,0.026 34.399,0.087 31.184,0 62.368,0 93.552,0 12.428,-0.071 24.865,0.138 37.283,-0.102 0.051,-30.872 0.066,-61.754 -0.01,-92.626 -55.073,-0.077 -110.151,-0.056 -165.224,-0.01 z"
   id="path26"
   inkscape:connector-curvature="0"
   style="fill:#030708;stroke:#030708;stroke-width:0.5" />
	<path
   d="m 965.53,1474.561 c 55.073,-0.046 110.151,-0.066 165.224,0.01 0.072,30.872 0.056,61.754 0.01,92.626 -12.417,0.24 -24.855,0.031 -37.283,0.102 -31.184,0 -62.368,0 -93.552,0 -11.466,-0.061 -22.943,0.123 -34.399,-0.087 -0.215,-27.483 -0.031,-54.976 -0.092,-82.458 0.062,-3.404 -0.148,-6.809 0.097,-10.193 z"
   id="path28"
   inkscape:connector-curvature="0"
   style="fill:#a0a0a0;stroke:#a0a0a0;stroke-width:0.5" />
	<path
   d="m 2257.183,1107.245 c -70.072,-38.285 -140.133,-76.6 -210.205,-114.885 -7.873,-4.407 -15.914,-8.512 -23.684,-13.092 -4.555,-2.203 -8.895,-4.795 -13.358,-7.152 -2.306,-1.186 -4.453,-2.679 -6.871,-3.594 -0.838,1.503 -1.483,3.098 -2.178,4.667 -6.569,14.979 -13.174,29.947 -19.815,44.89 -52.435,118.826 -104.942,237.621 -157.407,356.432 -3.722,8.481 -7.443,16.967 -11.477,25.31 -1.084,3.497 -2.781,6.758 -4.182,10.137 -2.387,5.311 -4.683,10.664 -7.065,15.98 -1.488,3.768 -3.487,7.326 -4.8,11.155 7.643,4.637 15.531,8.89 23.26,13.399 35.023,20.019 70.057,40.033 105.059,60.088 63.012,35.974 125.983,72.02 188.975,108.04 9.186,5.332 18.521,10.434 27.626,15.919 h 249.466 v -454.467 c -44.49,-24.196 -88.894,-48.555 -133.344,-72.827 z"
   id="path30"
   inkscape:connector-curvature="0"
   style="fill:#1e495c;stroke:#1e495c;stroke-width:0.5" />
</g>
</svg>