<?xml version="1.0" encoding="UTF-8" standalone="no"?>
<svg
   xmlns:dc="http://purl.org/dc/elements/1.1/"
   xmlns:cc="http://creativecommons.org/ns#"
   xmlns:rdf="http://www.w3.org/1999/02/22-rdf-syntax-ns#"
   xmlns:svg="http://www.w3.org/2000/svg"
   xmlns="http://www.w3.org/2000/svg"
   xmlns:sodipodi="http://sodipodi.sourceforge.net/DTD/sodipodi-0.dtd"
   xmlns:inkscape="http://www.inkscape.org/namespaces/inkscape"
   viewBox="0 0 1000 700"
   height="700"
   width="1000"
   xml:space="preserve"
   id="svg2"
   version="1.1"
   sodipodi:docname="urban_planning.svg"
   inkscape:version="0.92.3 (2405546, 2018-03-11)"><sodipodi:namedview
     pagecolor="#ffffff"
     bordercolor="#666666"
     borderopacity="1"
     objecttolerance="10"
     gridtolerance="10"
     guidetolerance="10"
     inkscape:pageopacity="0"
     inkscape:pageshadow="2"
     inkscape:window-width="1920"
     inkscape:window-height="1018"
     id="namedview72"
     showgrid="false"
     inkscape:zoom="0.5"
     inkscape:cx="517.44156"
     inkscape:cy="634.37157"
     inkscape:window-x="-8"
     inkscape:window-y="-8"
     inkscape:window-maximized="1"
     inkscape:current-layer="svg2" /><metadata
     id="metadata8"><rdf:RDF><cc:Work
         rdf:about=""><dc:format>image/svg+xml</dc:format><dc:type
           rdf:resource="http://purl.org/dc/dcmitype/StillImage" /><dc:title></dc:title></cc:Work></rdf:RDF></metadata><defs
     id="defs6" /><g
     transform="matrix(1.1668917,0,0,-1.1668917,145.84439,699.99997)"
     id="g10"><g
       transform="scale(0.1)"
       id="g12"><path
         id="path14"
         style="fill:#e1f1fb;fill-opacity:1;fill-rule:evenodd;stroke:none"
         d="M 0,0 H 5998.76 V 5998.77 H 0 V 0"
         inkscape:connector-curvature="0" /><path
         id="path16"
         style="fill:#94b5de;fill-opacity:1;fill-rule:evenodd;stroke:none"
         d="m 2195.67,4590.23 h 947.91 v -2312 H 2195.67 Z M 624.164,3277.09 H 1885.77 V 2278.23 H 624.164 Z M 3718.82,4330.96 h 842.59 V 2278.23 h -842.59 v 2052.73 0"
         inkscape:connector-curvature="0" /><path
         id="path18"
         style="fill:#b3d2f0;fill-opacity:1;fill-rule:evenodd;stroke:none"
         d="M 0.00390625,2278.23 H 770.805 V 3410.4 H 0.00390625 V 2278.23"
         inkscape:connector-curvature="0" /><path
         id="path20"
         style="fill:#b3d2f0;fill-opacity:1;fill-rule:evenodd;stroke:none"
         d="m 4035.85,2543.99 h 385.18 v -106.81 h -385.18 z m 0,184.72 c 128.38,0 256.79,0 385.18,0 0,-35.62 0,-71.2 0,-106.81 -128.39,0 -256.8,0 -385.18,0 0,35.61 0,71.19 0,106.81 z m 0,184.7 c 128.38,0 256.79,0 385.18,0 0,-35.6 0,-71.2 0,-106.79 -128.39,0 -256.8,0 -385.18,0 0,35.59 0,71.19 0,106.79 z m 0,184.71 c 128.38,0 256.79,0 385.18,0 0,-35.6 0,-71.21 0,-106.8 -128.39,0 -256.8,0 -385.18,0 0,35.59 0,71.2 0,106.8 z m 0,184.72 c 128.38,0 256.79,0 385.18,0 0,-35.6 0,-71.21 0,-106.81 -128.39,0 -256.8,0 -385.18,0 0,35.6 0,71.21 0,106.81 z m 0,184.72 c 128.38,0 256.79,0 385.18,0 0,-35.61 0,-71.21 0,-106.81 -128.39,0 -256.8,0 -385.18,0 0,35.6 0,71.2 0,106.81 z m 0,184.71 c 128.38,0 256.79,0 385.18,0 0,-35.6 0,-71.2 0,-106.81 -128.39,0 -256.8,0 -385.18,0 0,35.61 0,71.21 0,106.81 z m 0,184.71 c 128.38,0 256.79,0 385.18,0 0,-35.6 0,-71.2 0,-106.81 -128.39,0 -256.8,0 -385.18,0 0,35.61 0,71.21 0,106.81 z m 0,369.43 h 385.18 V 4099.6 h -385.18 z m 0,-184.72 c 128.38,0 256.79,0 385.18,0 0,-35.6 0,-71.2 0,-106.8 -128.39,0 -256.8,0 -385.18,0 0,35.6 0,71.2 0,106.8 v 0"
         inkscape:connector-curvature="0" /><path
         id="path22"
         style="fill:#b3d2f0;fill-opacity:1;fill-rule:evenodd;stroke:none"
         d="m 2973.45,5092.54 h 964.11 V 2278.23 H 2973.45 Z M 1515.1,5214.07 h 899.31 V 2278.23 H 1515.1 v 2935.84 0"
         inkscape:connector-curvature="0" /><path
         id="path24"
         style="fill:#cee6f8;fill-opacity:1;fill-rule:evenodd;stroke:none"
         d="m 3122.35,2419.96 h 97.23 v 2584.5 h -97.23 v -2584.5"
         inkscape:connector-curvature="0" /><path
         id="path26"
         style="fill:#cee6f8;fill-opacity:1;fill-rule:evenodd;stroke:none"
         d="m 3315.45,5004.46 c 32.41,0 64.82,0 97.22,0 0,-861.51 0,-1723.02 0,-2584.51 -32.4,0 -64.81,0 -97.22,0 0,861.49 0,1723 0,2584.51"
         inkscape:connector-curvature="0" /><path
         id="path28"
         style="fill:#cee6f8;fill-opacity:1;fill-rule:evenodd;stroke:none"
         d="m 3508.55,5004.46 c 32.39,0 64.8,0 97.23,0 0,-861.51 0,-1723.02 0,-2584.51 -32.43,0 -64.84,0 -97.23,0 0,861.49 0,1723 0,2584.51"
         inkscape:connector-curvature="0" /><path
         id="path30"
         style="fill:#cee6f8;fill-opacity:1;fill-rule:evenodd;stroke:none"
         d="m 3701.64,2419.96 h 97.22 v 2584.5 h -97.22 v -2584.5"
         inkscape:connector-curvature="0" /><path
         id="path32"
         style="fill:#cee6f8;fill-opacity:1;fill-rule:evenodd;stroke:none"
         d="m 1624.51,5009.51 h 681.57 v 81.03 h -681.57 v -81.03"
         inkscape:connector-curvature="0" /><path
         id="path34"
         style="fill:#cee6f8;fill-opacity:1;fill-rule:evenodd;stroke:none"
         d="m 1624.52,4813.16 c 227.18,0 454.37,0 681.57,0 0,-27.01 0,-54.02 0,-81.02 -227.2,0 -454.39,0 -681.57,0 0,27 0,54.01 0,81.02"
         inkscape:connector-curvature="0" /><path
         id="path36"
         style="fill:#cee6f8;fill-opacity:1;fill-rule:evenodd;stroke:none"
         d="m 1624.52,4535.78 c 227.18,0 454.37,0 681.57,0 0,-27.01 0,-54.02 0,-81.02 -227.2,0 -454.39,0 -681.57,0 0,27 0,54.01 0,81.02"
         inkscape:connector-curvature="0" /><path
         id="path38"
         style="fill:#cee6f8;fill-opacity:1;fill-rule:evenodd;stroke:none"
         d="m 1624.52,4258.4 c 227.18,0 454.37,0 681.57,0 0,-27 0,-54.01 0,-81.02 -227.2,0 -454.39,0 -681.57,0 0,27.01 0,54.02 0,81.02"
         inkscape:connector-curvature="0" /><path
         id="path40"
         style="fill:#cee6f8;fill-opacity:1;fill-rule:evenodd;stroke:none"
         d="m 1624.52,3981.03 c 227.18,0 454.37,0 681.57,0 0,-27.01 0,-54.02 0,-81.02 -227.2,0 -454.39,0 -681.57,0 0,27 0,54.01 0,81.02"
         inkscape:connector-curvature="0" /><path
         id="path42"
         style="fill:#cee6f8;fill-opacity:1;fill-rule:evenodd;stroke:none"
         d="m 1624.52,3703.65 c 227.18,0 454.37,0 681.57,0 0,-27.01 0,-54.02 0,-81.02 -227.2,0 -454.39,0 -681.57,0 0,27 0,54.01 0,81.02"
         inkscape:connector-curvature="0" /><path
         id="path44"
         style="fill:#cee6f8;fill-opacity:1;fill-rule:evenodd;stroke:none"
         d="m 1624.52,3426.27 c 227.18,0 454.37,0 681.57,0 0,-27.01 0,-54.01 0,-81.02 -227.2,0 -454.39,0 -681.57,0 0,27.01 0,54.01 0,81.02"
         inkscape:connector-curvature="0" /><path
         id="path46"
         style="fill:#cee6f8;fill-opacity:1;fill-rule:evenodd;stroke:none"
         d="m 1624.52,3148.89 c 227.18,0 454.37,0 681.57,0 0,-27 0,-54.01 0,-81.02 -227.2,0 -454.39,0 -681.57,0 0,27.01 0,54.02 0,81.02"
         inkscape:connector-curvature="0" /><path
         id="path48"
         style="fill:#cee6f8;fill-opacity:1;fill-rule:evenodd;stroke:none"
         d="m 1624.52,2871.52 c 227.18,0 454.37,0 681.57,0 0,-27 0,-54.01 0,-81.02 -227.2,0 -454.39,0 -681.57,0 0,27.01 0,54.02 0,81.02"
         inkscape:connector-curvature="0" /><path
         id="path50"
         style="fill:#cee6f8;fill-opacity:1;fill-rule:evenodd;stroke:none"
         d="m 1624.51,2513.13 h 681.57 v 81.03 h -681.57 v -81.03"
         inkscape:connector-curvature="0" /><path
         id="path52"
         style="fill:#9ac421;fill-opacity:1;fill-rule:evenodd;stroke:none"
         d="M 0,0 H 5998.76 V 2278.23 H 0 V 0"
         inkscape:connector-curvature="0" /><path
         id="path54"
         style="fill:#adda1a;fill-opacity:1;fill-rule:evenodd;stroke:none"
         d="M 5998.76,1058.7 V 0 H 0.00390625 V 1926.94 L 5998.76,1058.7"
         inkscape:connector-curvature="0" /><path
         id="path56"
         style="fill:#459a37;fill-opacity:1;fill-rule:evenodd;stroke:none"
         d="M 5998.76,1981.42 0.00390625,1139.11 V 0 H 1984.98 l 4013.78,1981.42"
         inkscape:connector-curvature="0" /><path
         id="path58"
         style="fill:#57b635;fill-opacity:1;fill-rule:evenodd;stroke:none"
         d="M 2762.86,1527.07 0.00390625,1139.11 V 0 H 1984.98 l 2568.39,1267.91 -1790.51,259.16"
         inkscape:connector-curvature="0" /><path
         id="path60"
         style="fill:#adda1a;fill-opacity:1;fill-rule:evenodd;stroke:none"
         d="M 0.00390625,1908.5 4958.36,2078.65 0.00390625,1487.21 Z"
         inkscape:connector-curvature="0" /><path
         id="path62"
         style="fill:#bfe028;fill-opacity:1;fill-rule:evenodd;stroke:none"
         d="M 0.00390625,1908.5 102.949,1912.04 1665.54,1685.88 0.00390625,1487.21 v 421.29"
         inkscape:connector-curvature="0" /><path
         id="path64"
         style="fill:#87b027;fill-opacity:1;fill-rule:evenodd;stroke:none"
         d="M 4075.25,0 5998.76,1665.45 V 1511.52 L 5201.42,0 H 4075.25"
         inkscape:connector-curvature="0" /><path
         id="path66"
         style="fill:#9ac421;fill-opacity:1;fill-rule:evenodd;stroke:none"
         d="M 4075.25,0 5398.37,1145.6 5776.86,1090.83 5201.42,0 H 4075.25"
         inkscape:connector-curvature="0" /><path
         id="path68"
         style="fill:#769a2a;fill-opacity:1;fill-rule:evenodd;stroke:none"
         d="m 895.004,1490.26 c 285.376,0 518.126,15.59 518.126,34.74 0,19.13 -232.75,34.71 -518.126,34.71 -285.371,0 -518.129,-15.58 -518.129,-34.71 0,-19.15 232.758,-34.74 518.129,-34.74"
         inkscape:connector-curvature="0" /><path
         id="path70"
         style="fill:#87b027;fill-opacity:1;fill-rule:evenodd;stroke:none"
         d="m 950.195,3875.02 0.426,0.46 -0.07,-0.66 z m 487.515,-419.25 c 169.34,43.26 294.55,196.83 294.55,379.66 0,216.4 -175.43,391.83 -391.84,391.83 -111.12,0 -211.43,-46.28 -282.74,-120.59 2.27,17.77 3.44,35.89 3.44,54.28 0,234.16 -189.827,423.98 -423.987,423.98 -234.164,0 -423.985,-189.82 -423.985,-423.98 0,-155.59 83.821,-291.58 208.75,-365.34 -69.714,-75.8 -112.304,-176.95 -112.304,-288.04 0,-81.71 23.047,-158.02 62.949,-222.83 -89.227,-64.19 -147.344,-168.92 -147.344,-287.24 0,-195.32 158.34,-353.66 353.664,-353.66 109.864,0 208.032,50.11 272.895,128.7 79.351,-70.07 183.582,-112.62 297.772,-112.62 248.59,0 450.11,201.51 450.11,450.1 0,138.96 -62.98,263.19 -161.93,345.75 v 0"
         inkscape:connector-curvature="0" /><path
         id="path72"
         style="fill:#5e2e1c;fill-opacity:1;fill-rule:evenodd;stroke:none"
         d="m 883.746,4348.4 h 22.52 l 17.027,-1163.89 0.004,0.01 504.853,732.11 -503.314,-837.33 22.73,-1554.32 H 842.438 l 15.433,1055.04 -383.375,503.1 384.582,-420.48 12.195,833.45 -389.277,655.19 390.254,-588 11.496,785.12"
         inkscape:connector-curvature="0" /><path
         id="path74"
         style="fill:#9ac421;fill-opacity:1;fill-rule:evenodd;stroke:none"
         d="m 796.488,4198.01 c 42.844,-103.46 144.778,-176.26 263.732,-176.26 157.59,0 285.34,127.76 285.34,285.35 0,151.67 -118.32,275.67 -267.69,284.79 0.73,7.6 1.12,15.3 1.12,23.09 0,130.64 -105.892,236.53 -236.533,236.53 -126.062,0 -229.066,-98.6 -236.144,-222.89 -99.887,-28.15 -173.098,-119.91 -173.098,-228.81 0,-15.37 1.476,-30.41 4.265,-44.97 -64.785,-31.77 -109.394,-98.36 -109.394,-175.39 0,-107.82 87.406,-195.23 195.234,-195.23 103.59,0 188.313,80.67 194.821,182.61 28.25,5.7 54.691,16.43 78.347,31.18 z m 392.132,-557.57 c -4.13,11.83 -6.38,24.54 -6.38,37.77 0,58.16 43.36,106.2 99.52,113.54 l -0.02,3.15 c 0,135.66 109.97,245.62 245.63,245.62 135.67,0 245.63,-109.96 245.63,-245.62 0,-125.01 -93.37,-228.19 -214.17,-243.63 24.97,-40.83 39.36,-88.8 39.36,-140.17 0,-148.54 -120.43,-268.98 -268.98,-268.98 -148.56,0 -268.99,120.44 -268.99,268.98 0,97.02 51.38,182.04 128.4,229.34 z M 550.684,3359.85 c 81.879,-36.24 139.019,-118.18 139.019,-213.49 0,-128.89 -104.488,-233.38 -233.371,-233.38 -128.894,0 -233.379,104.49 -233.379,233.38 0,54.34 18.578,104.34 49.723,144.01 -42.817,33.32 -70.371,85.33 -70.371,143.8 0,100.56 81.523,182.1 182.093,182.1 100.567,0 182.094,-81.54 182.094,-182.1 0,-26.48 -5.652,-51.63 -15.808,-74.32 v 0"
         inkscape:connector-curvature="0" /><path
         id="path76"
         style="fill:#769a2a;fill-opacity:1;fill-rule:evenodd;stroke:none"
         d="m 5180.19,619.961 c 386.52,0 699.86,-21.012 699.86,-46.91 0,-25.922 -313.34,-46.922 -699.86,-46.922 -386.53,0 -699.87,21 -699.87,46.922 0,25.898 313.34,46.91 699.87,46.91"
         inkscape:connector-curvature="0" /><path
         id="path78"
         style="fill:#87b027;fill-opacity:1;fill-rule:evenodd;stroke:none"
         d="m 5254.74,3747.43 0.59,0.62 -0.11,-0.9 z m 658.52,-566.33 c 29.59,7.56 58.15,17.64 85.5,29.94 v 965.81 c -66.2,29.78 -139.59,46.36 -216.89,46.36 -150.12,0 -285.62,-62.51 -381.94,-162.89 3.05,24.01 4.65,48.48 4.65,73.32 0,316.3 -256.41,572.71 -572.71,572.71 -316.32,0 -572.71,-256.41 -572.71,-572.71 0,-210.17 113.21,-393.85 281.98,-493.49 -94.16,-102.39 -151.7,-239.01 -151.7,-389.09 0,-110.35 31.11,-213.43 85.03,-300.98 -120.53,-86.73 -199.02,-228.17 -199.02,-387.99 0,-263.84 213.86,-477.72 477.7,-477.72 148.4,0 281.01,67.68 368.62,173.84 107.18,-94.65 247.99,-152.12 402.25,-152.12 192.07,0 363.34,89.1 474.74,228.2 v 759.58 c -25.5,31.86 -54.17,61.1 -85.5,87.23 v 0"
         inkscape:connector-curvature="0" /><path
         id="path80"
         style="fill:#5e2e1c;fill-opacity:1;fill-rule:evenodd;stroke:none"
         d="m 5164.97,4386.85 h 30.44 l 22.99,-1572.17 v 0.03 l 681.97,988.91 -679.89,-1131.04 30.71,-2099.529 h -142 l 20.83,1425.089 -517.84,679.59 519.48,-567.98 16.48,1125.82 -525.83,885.03 527.15,-794.27 15.51,1060.52"
         inkscape:connector-curvature="0" /><path
         id="path82"
         style="fill:#9ac421;fill-opacity:1;fill-rule:evenodd;stroke:none"
         d="m 5047.13,4183.71 c 57.87,-139.75 195.56,-238.08 356.22,-238.08 212.87,0 385.45,172.56 385.45,385.43 0,204.87 -159.85,372.36 -361.6,384.68 1,10.27 1.53,20.67 1.53,31.19 0,176.47 -143.05,319.51 -319.52,319.51 -170.29,0 -309.41,-133.2 -318.95,-301.08 -134.95,-38.01 -233.86,-161.98 -233.86,-309.05 0,-20.79 2.01,-41.08 5.78,-60.76 -87.51,-42.92 -147.77,-132.87 -147.77,-236.92 0,-145.65 118.08,-263.71 263.71,-263.71 139.93,0 254.39,108.97 263.17,246.67 38.17,7.71 73.88,22.19 105.84,42.12 z m 529.68,-753.15 c -5.58,15.98 -8.62,33.14 -8.62,51.02 0,78.56 58.57,143.44 134.42,153.36 l -0.02,4.25 c 0,171.22 129.68,312.12 296.17,329.89 V 2841.22 c -62.93,-52.33 -143.81,-83.79 -232.06,-83.79 -200.67,0 -363.35,162.67 -363.35,363.35 0,131.05 69.42,245.88 173.46,309.78 z m -861.72,-379.02 c 110.61,-48.94 187.78,-159.65 187.78,-288.39 0,-174.08 -141.13,-315.22 -315.24,-315.22 -174.09,0 -315.21,141.14 -315.21,315.22 0,73.42 25.08,140.96 67.15,194.53 -57.85,45.01 -95.05,115.28 -95.05,194.24 0,135.85 110.1,245.97 245.95,245.97 135.85,0 245.99,-110.12 245.99,-245.97 0,-35.76 -7.66,-69.73 -21.37,-100.38 v 0"
         inkscape:connector-curvature="0" /><path
         id="path84"
         style="fill:#769a2a;fill-opacity:1;fill-rule:evenodd;stroke:none"
         d="m 3592.44,1923.33 c 169.64,0 308.01,9.27 308.01,20.64 0,11.37 -138.37,20.65 -308.01,20.65 -169.63,0 -308,-9.28 -308,-20.65 0,-11.37 138.37,-20.64 308,-20.64"
         inkscape:connector-curvature="0" /><path
         id="path86"
         style="fill:#769a2a;fill-opacity:1;fill-rule:evenodd;stroke:none"
         d="m 3625.25,3340.97 0.25,0.26 -0.03,-0.39 z m 289.81,-249.23 c 100.66,25.71 175.09,117.01 175.09,225.68 0,128.64 -104.29,232.92 -232.92,232.92 -66.06,0 -125.69,-27.5 -168.09,-71.68 1.35,10.58 2.06,21.34 2.06,32.28 0,139.19 -112.85,252.03 -252.05,252.03 -139.2,0 -252.05,-112.84 -252.05,-252.03 0,-92.5 49.84,-173.34 124.11,-217.18 -41.45,-45.07 -66.75,-105.19 -66.75,-171.24 0,-48.56 13.69,-93.92 37.39,-132.45 -53.03,-38.16 -87.57,-100.43 -87.57,-170.76 0,-116.1 94.11,-210.23 210.24,-210.23 65.3,0 123.66,29.77 162.22,76.51 47.17,-41.67 109.13,-66.96 177.01,-66.96 147.78,0 267.57,119.8 267.57,267.59 0,82.59 -37.44,156.44 -96.26,205.52 v 0"
         inkscape:connector-curvature="0" /><path
         id="path88"
         style="fill:#5e2e1c;fill-opacity:1;fill-rule:evenodd;stroke:none"
         d="m 3585.74,3622.36 h 13.4 l 10.12,-691.87 v 0 l 300.12,435.21 -299.2,-497.76 13.52,-923.97 h -62.49 l 9.16,627.17 -227.89,299.08 228.61,-249.96 7.24,495.45 -231.38,389.48 231.97,-349.55 6.82,466.72"
         inkscape:connector-curvature="0" /><path
         id="path90"
         style="fill:#87b027;fill-opacity:1;fill-rule:evenodd;stroke:none"
         d="m 3533.88,3532.96 c 25.47,-61.5 86.07,-104.78 156.78,-104.78 93.67,0 169.63,75.96 169.63,169.64 0,90.15 -70.35,163.86 -159.14,169.28 0.44,4.52 0.66,9.1 0.66,13.74 0,77.65 -62.95,140.6 -140.6,140.6 -74.94,0 -136.18,-58.61 -140.37,-132.5 -59.39,-16.72 -102.91,-71.28 -102.91,-136.01 0,-9.15 0.87,-18.08 2.53,-26.74 -38.5,-18.88 -65.04,-58.46 -65.04,-104.26 0,-64.09 51.98,-116.06 116.08,-116.06 61.57,0 111.94,47.96 115.8,108.57 16.81,3.39 32.52,9.75 46.58,18.52 z M 3767,3201.52 c -2.46,7.03 -3.8,14.58 -3.8,22.46 0,34.57 25.78,63.11 59.15,67.49 l -0.01,1.87 c 0,80.63 65.38,146 146.02,146 80.64,0 146.03,-65.37 146.03,-146 0,-74.33 -55.53,-135.65 -127.33,-144.83 14.84,-24.28 23.39,-52.79 23.39,-83.33 0,-88.3 -71.59,-159.9 -159.9,-159.9 -88.31,0 -159.89,71.6 -159.89,159.9 0,57.68 30.55,108.21 76.34,136.34 z m -379.24,-166.8 c 48.67,-21.55 82.64,-70.26 82.64,-126.91 0,-76.62 -62.11,-138.72 -138.73,-138.72 -76.61,0 -138.72,62.1 -138.72,138.72 0,32.31 11.04,62.03 29.55,85.61 -25.46,19.8 -41.84,50.72 -41.84,85.48 0,59.78 48.48,108.24 108.25,108.24 59.79,0 108.25,-48.46 108.25,-108.24 0,-15.75 -3.37,-30.69 -9.4,-44.18 v 0"
         inkscape:connector-curvature="0" /><path
         id="path92"
         style="fill:#b3d2f0;fill-opacity:1;fill-rule:evenodd;stroke:none"
         d="m 2539.02,2656.92 h 186.35 v -133.68 h -186.35 z m 0,254.92 c 62.11,0 124.24,0 186.35,0 0,-44.57 0,-89.12 0,-133.68 -62.11,0 -124.24,0 -186.35,0 0,44.56 0,89.11 0,133.68 z m 0,254.93 c 62.11,0 124.24,0 186.35,0 0,-44.57 0,-89.13 0,-133.68 -62.11,0 -124.24,0 -186.35,0 0,44.55 0,89.11 0,133.68 z m 0,254.91 c 62.11,0 124.24,0 186.35,0 0,-44.56 0,-89.13 0,-133.67 -62.11,0 -124.24,0 -186.35,0 0,44.54 0,89.11 0,133.67 z m 0,254.93 c 62.11,0 124.24,0 186.35,0 0,-44.57 0,-89.13 0,-133.67 -62.11,0 -124.24,0 -186.35,0 0,44.54 0,89.1 0,133.67 z m 0,254.91 c 62.11,0 124.24,0 186.35,0 0,-44.56 0,-89.12 0,-133.68 -62.11,0 -124.24,0 -186.35,0 0,44.56 0,89.12 0,133.68 z m 0,509.85 h 186.35 v -133.69 h -186.35 z m 0,-254.92 c 62.11,0 124.24,0 186.35,0 0,-44.56 0,-89.13 0,-133.68 -62.11,0 -124.24,0 -186.35,0 0,44.55 0,89.12 0,133.68 v 0"
         inkscape:connector-curvature="0" /></g></g></svg>