<?xml version="1.0" encoding="UTF-8" standalone="no"?>
<svg
   xmlns:dc="http://purl.org/dc/elements/1.1/"
   xmlns:cc="http://creativecommons.org/ns#"
   xmlns:rdf="http://www.w3.org/1999/02/22-rdf-syntax-ns#"
   xmlns:svg="http://www.w3.org/2000/svg"
   xmlns="http://www.w3.org/2000/svg"
   xmlns:sodipodi="http://sodipodi.sourceforge.net/DTD/sodipodi-0.dtd"
   xmlns:inkscape="http://www.inkscape.org/namespaces/inkscape"
   id="svg2"
   viewBox="0 0 999.99996 699.99998"
   version="1.0"
   sodipodi:docname="craft.svg"
   width="1000"
   height="700"
   inkscape:version="0.92.3 (2405546, 2018-03-11)">
  <defs
     id="defs36" />
  <sodipodi:namedview
     pagecolor="#ffffff"
     bordercolor="#666666"
     borderopacity="1"
     objecttolerance="10"
     gridtolerance="10"
     guidetolerance="10"
     inkscape:pageopacity="0"
     inkscape:pageshadow="2"
     inkscape:window-width="1920"
     inkscape:window-height="1018"
     id="namedview34"
     showgrid="false"
     inkscape:zoom="0.56487031"
     inkscape:cx="564.68471"
     inkscape:cy="444.28349"
     inkscape:window-x="-8"
     inkscape:window-y="-8"
     inkscape:window-maximized="1"
     inkscape:current-layer="svg2" />
  <g
     id="layer1"
     transform="matrix(0.78922583,0,0,0.78922583,218.00713,-60.650621)">
    <g
       id="g1928">
      <path
         id="path2004"
         d="m 512.68,456.76 7.53,72.4 3.76,91.46 -1.45,48.56 -11.61,-5.74 -17.05,-0.9 -9.4,-5.72 v -26.67 l -1.89,-34.3 -5.64,-38.11 L 460,513.92 437.42,481.53 v -3.81 l 2.77,-7.74 -4.65,-9.41 v -70.5 l -5.65,-20.96 -20.26,-20.28 -7.96,-14.02 -1.88,-13.33 5.64,-9.53 13.17,-7.62 20.7,-1.91 35.75,9.53 50.8,7.62 56.45,4.14 47.03,9.2 h 11.29 l 2.68,24.77 -25.26,1.9 h -30.1 l -28.22,-1.9 -20.7,5.72 -16.93,15.24 -15.06,20.96 v 24.77 z"
         inkscape:connector-curvature="0"
         style="fill:#364045;fill-rule:evenodd;stroke:#000000;stroke-width:0.66268998px" />
      <path
         id="path2006"
         d="m 466.4,341.43 2,-6.06 v -10.11 l -9.98,-6.74 c 0,0 -9.98,-2.02 -13.97,-2.02 h -16.63 l -5.32,6.07 -1.33,8.08 3.32,10.78 6.65,4.04 h 22.62 z"
         inkscape:connector-curvature="0"
         style="fill-rule:evenodd;stroke:#000000;stroke-width:0.66268998px" />
      <path
         id="path2008"
         d="m 523.45,655.4 7.98,41.76 6.65,32.34 h 9.32 l 5.32,8.08 7.98,12.13 1.33,9.43 v 8.08 l -3.99,2.7 -6.65,4.04 h -5.32 v 16.17 l -37.26,9.43 -6.65,26.94 -5.32,17.52 -63.86,9.43 -1.33,-17.52 -17.3,-2.69 -22.62,-9.43 -62.53,2.69 c 0,0 -17.29,-4.04 -22.61,-4.04 -5.33,0 -19.96,-4.04 -19.96,-4.04 l -21.29,-14.82 -15.96,-9.43 5.32,-71.41 6.65,-9.43 14.64,-10.78 62.53,-22.9 5.32,-8.09 v -33.68 l 2.66,-39.07 1.33,-29.64 9.31,-44.46 6.66,-52.55 -1.34,-14.82 -5.32,-12.12 -10.64,-8.09 h -7.98 l -5.32,-12.12 29.26,4.04 4,-13.47 5.32,-26.95 3.99,-29.64 -5.32,-14.82 -11.98,-14.82 -9.31,-2.7 -15.96,-2.69 -15.97,1.35 -3.99,-1.35 -1.33,-12.13 14.63,-6.73 11.98,-10.78 17.29,-18.86 9.32,-26.95 6.65,-32.33 2.66,-33.69 -3.99,-32.33 -7.99,-21.56 -10.64,-12.12 50.56,5.38 9.31,6.74 19.96,8.08 18.62,2.7 45.24,12.12 34.59,2.7 15.97,-5.39 37.25,10.78 74.5,24.25 19.96,10.78 c 0,0 10.64,17.51 13.3,22.9 2.66,5.39 9.32,36.38 9.32,36.38 l -6.66,39.07 -13.3,35.03 -22.62,21.56 -10.64,6.73 h -3.99 l -7.98,-21.55 -211.55,-30.99 -14.63,5.39 -9.31,17.51 5.32,14.82 14.63,13.48 13.31,6.73 9.31,14.82 2.66,25.6 -3.99,39.08 v 26.94 l 17.3,36.38 18.62,39.07 10.65,51.2 3.99,63.32 11.97,5.39 z"
         inkscape:connector-curvature="0"
         style="fill:#317683;fill-rule:evenodd;stroke:#000000;stroke-width:0.66268998px" />
      <path
         id="path2010"
         d="m 543.4,790.13 -36.58,7.41 -5.99,22.23 -3.99,23.58 1.33,15.49 -2.66,18.86 -7.98,17.52 -21.29,12.12 h -18.63 l -13.3,-13.47 -1.33,-14.82 v -43.79 l -18.63,-2.02 -23.95,-12.13 -61.2,5.39 -22.61,-6.73 -26.61,-10.78 -15.97,-9.43 -14.63,-12.13 2.66,43.12 0.66,-0.68 5.99,72.08 9.31,15.5 c 17.08,7.63 21.44,19.56 51.23,22.9 l 19.95,0.67 71.18,-2.69 11.97,-2.69 h 13.31 l 29.27,-2.7 19.96,-1.35 35.25,-2.69 11.31,-6.74 6.65,-22.9 3.33,-39.75 z"
         inkscape:connector-curvature="0"
         style="fill:#d53a34;fill-rule:evenodd;stroke:#000000;stroke-width:0.66268998px" />
      <path
         id="path2012"
         d="m 498.17,843.35 -64.53,10.77 -1.33,40.42 13.31,12.13 19.95,1.35 20.63,-10.11 11.3,-22.23 z"
         inkscape:connector-curvature="0"
         style="fill:#8d9290;fill-rule:evenodd;stroke:#000000;stroke-width:0.66268998px" />
      <path
         id="path2021"
         d="m 351.43,116.45 -26.07,0.11 5.39,11.84 4.5,9.11 4.49,7.28 h 29.23 l -6.86,-16.62 z"
         inkscape:connector-curvature="0"
         style="fill:#a2b4b7;fill-rule:evenodd;stroke:#000000;stroke-width:0.66268998px" />
      <path
         id="path2023"
         d="m 373.5,174.47 -4.63,-29.34 -29.33,-0.27 2.62,29.57 z"
         inkscape:connector-curvature="0"
         style="fill:#4b585d;fill-rule:evenodd;stroke:#000000;stroke-width:0.66268998px" />
      <path
         id="path2025"
         d="m 370.46,149.6 c -0.01,0.09 0,0.18 -0.01,0.27 v 0.42 c 0,0.13 0.01,0.27 0.01,0.41 0,0.11 0.06,0.21 0.1,0.32 l -0.9,0.51 c -0.04,-0.11 -0.11,-0.22 -0.11,-0.35 0,-0.14 -0.02,-0.28 -0.01,-0.42 v -0.42 c 0,-0.08 0,-0.17 -0.01,-0.26 z"
         inkscape:connector-curvature="0" />
      <path
         id="path2027"
         d="m 369.71,149.72 c 0.29,-0.16 0.59,-0.33 0.89,-0.49 -0.07,0 -0.05,0.11 -0.07,0.16 -0.01,0.13 -0.01,0.27 -0.01,0.4 v 0.89 c -0.01,0.14 0.01,0.28 0.02,0.42 0.03,0.1 0.1,0.18 0.17,0.26 0.09,0.1 0.1,0.22 0.14,0.34 0.02,0.14 0.02,0.28 0.02,0.42 0,0.13 0,0.27 0.01,0.41 0.03,0.1 0.06,0.21 0.1,0.31 0,0.02 0.01,0.04 0.01,0.06 l -0.91,0.49 c 0,-0.02 0,-0.04 -0.01,-0.06 -0.03,-0.1 -0.07,-0.21 -0.1,-0.32 -0.01,-0.14 -0.02,-0.28 -0.01,-0.42 0,-0.13 0,-0.27 -0.01,-0.4 -0.04,-0.11 -0.05,-0.22 -0.13,-0.3 -0.07,-0.09 -0.15,-0.18 -0.19,-0.3 -0.01,-0.14 -0.04,-0.29 -0.02,-0.44 v -1.3 c 0.05,-0.53 -0.01,-0.3 0.94,-0.75 z"
         inkscape:connector-curvature="0" />
      <path
         id="path2029"
         d="m 373.8,174.08 -31.98,-0.56 1.11,15.21 -1.11,14.64 -1.67,13.52 -5.01,18.59 -6.67,16.34 -8.9,19.15 -14.47,16.34 -16.69,12.39 24.2,12.96 22.25,-11.83 21.28,-24.79 9.18,-18.17 6.82,-20.98 2.5,-19.15 0.28,-21.97 z"
         inkscape:connector-curvature="0"
         style="fill:#a2b4b7;fill-rule:evenodd;stroke:#000000;stroke-width:0.66268998px" />
      <path
         id="path2060"
         d="m 325.96,116.49 -63.54,-0.95 -1.67,9.3 11.68,9.29 4.18,10.99 3.33,13.52 2.51,15.21 -0.84,17.74 -5,21.97 -10.85,27.04 -13.35,21.97 -13.35,12.68 -11.69,-2.54 19.2,8.45 12.51,5.07 29.21,13.52 13.35,-10.99 18.8,-15.35 6.33,-12.82 6.53,-15.31 3.49,-13.62 2.36,-13.28 4.17,-23.26 -1.43,-17.65 -1.32,-16.75 -0.24,-16.59 -8.65,-14.22 z"
         inkscape:connector-curvature="0"
         style="fill:#4a575c;fill-rule:evenodd;stroke:#000000;stroke-width:0.66268998px" />
      <path
         id="path2062"
         d="m 262.46,120.04 7.93,4.22 5.84,5.92 6.68,18.59 2.5,19.43 -0.83,22.82 -2.51,17.74 -3.33,18.59 -9.18,18.59 -15.02,19.44 -13.35,10.98 -9.6,-0.42 c 0,0 -4.17,-1.27 -4.17,-4.65 0,-3.38 5.42,-2.53 5.42,-2.53 l 15.86,-18.59 13.35,-22.82 10.85,-36.33 -1.67,-33.8 -3.34,-19.44 -8.35,-9.71 z"
         inkscape:connector-curvature="0"
         style="fill-rule:evenodd;stroke:#000000;stroke-width:0.66268998px" />
      <path
         id="path2064"
         d="m 313.48,323.82 23.51,0.65 21.05,4.15 13.85,16.9 4.33,14.97 -3.8,24.17 -6.2,30.42 -3.58,13.76 -17.45,3.14 -18.36,-3.38 -25.47,-8.9 -2.21,-6.94 10.75,-33.19 2.88,-13.22 1.93,-26.83 z"
         inkscape:connector-curvature="0"
         style="fill:#364045;fill-rule:evenodd;stroke:#000000;stroke-width:0.66268998px" />
      <path
         id="path2066"
         d="m 323.89,427.42 7.96,-20.03 4.34,-19.55 1.45,-22.24 v -22.48 l -0.48,-18.81 -23.41,-0.74 0.73,17.6 v 10.99 l -2.42,16.62 -3.38,15.39 -9.65,28.35 2.17,7.33 z"
         inkscape:connector-curvature="0"
         style="fill:none;stroke:#000000;stroke-width:0.66268998px" />
      <path
         id="path2068"
         d="m 259.28,123.31 3.04,7.11 5.93,8.17 4.17,30.7 0.46,16.71 -0.92,10.61 -3.71,14.77 -4.54,11.52 -4.55,9.73 -8.22,14.78 -6.89,10.11 -9.49,8.35 -5.87,6.45 -119.57,-31.42 -27.357,-31.39 20.057,1.84 9.12,-9.23 10.94,-24 10.94,-20.32 v -22.16 l -9.12,-9.23 -16.41,-3.69 h -7.292 l 14.592,-11.08 23.7,-5.54 z"
         inkscape:connector-curvature="0"
         style="fill:#4a575c;fill-rule:evenodd;stroke:#000000;stroke-width:0.66268998px" />
      <path
         id="path2070"
         d="m 101.87,121.85 -28.92,14.21 -3.276,3.32 8.229,2.27 3.566,6.35 v 5.31 l 0.655,7.97 -1.965,7.3 -4.359,3.47 -6.126,3.83 -7.864,-1.33 v 7.96 l 2.621,6.64 9.83,10.62 10.988,14.36 16.731,-2.85 9.6,-9.72 7.59,-12.76 9.73,-19.91 4.66,-13.97 c -0.43,-4.43 0.98,-10.9 -0.15,-13.28 l -1,-6.39 -8.6,-8.32 -15.47,-6.13 z"
         inkscape:connector-curvature="0"
         style="fill:#b4b2ad;fill-rule:evenodd;stroke:#000000;stroke-width:0.66268998px" />
      <path
         id="path2072"
         d="m 76.366,139.19 -39.097,-1.47 -4.634,5.87 -2.317,6.74 -1.158,6.16 3.475,4.69 6.951,4.69 28.96,10.56 10.716,-6.74 2.027,-7.34 0.29,-12.61 z"
         inkscape:connector-curvature="0"
         style="fill:#e5e5e5;fill-rule:evenodd;stroke:#000000;stroke-width:0.66268998px" />
      <path
         id="path2074"
         d="m 80.857,163.22 -41.271,-12.01 1.737,-5.87 0.615,-7.35 -5.623,0.45 -4.259,6.9 -2.691,11.32 5.213,0.76 5.177,-6.28 z"
         inkscape:connector-curvature="0"
         style="fill:none;stroke:#000000;stroke-width:0.66268998px" />
      <path
         id="path2076"
         d="m 432.29,137.13 63.96,14.15 4.61,-10.87 c -28.94,0.02 -24.29,0.05 -36.44,0.07 l -30.39,-14.49 z"
         inkscape:connector-curvature="0"
         style="fill:#364045;fill-rule:evenodd;stroke:#000000;stroke-width:0.66268998px" />
      <path
         id="path2078"
         d="m 656.01,257.67 c -10.65,-0.83 -23.75,-4.98 -23.75,-4.98 l -2.46,10.78 26.21,4.15 z"
         inkscape:connector-curvature="0"
         style="fill-rule:evenodd;stroke:#000000;stroke-width:0.66268998px" />
      <path
         id="path2080"
         d="m 658.05,237.29 c -10.65,-0.83 -23.75,-4.98 -23.75,-4.98 l -2.46,10.79 26.21,4.15 z"
         inkscape:connector-curvature="0"
         style="fill-rule:evenodd;stroke:#000000;stroke-width:0.66268998px" />
      <path
         id="path2082"
         d="m 659.37,217.29 c -10.65,-0.83 -23.76,-4.98 -23.76,-4.98 l -2.45,10.78 26.21,4.15 z"
         inkscape:connector-curvature="0"
         style="fill-rule:evenodd;stroke:#000000;stroke-width:0.66268998px" />
      <path
         id="path2084"
         d="m 659.37,197.28 c -10.65,-0.83 -23.76,-4.98 -23.76,-4.98 l -2.45,10.79 26.21,4.14 z"
         inkscape:connector-curvature="0"
         style="fill-rule:evenodd;stroke:#000000;stroke-width:0.66268998px" />
      <path
         id="path2086"
         d="m 618.54,250.63 c -10.65,-0.83 -23.75,-4.98 -23.75,-4.98 l -2.46,10.79 26.21,4.14 z"
         inkscape:connector-curvature="0"
         style="fill-rule:evenodd;stroke:#000000;stroke-width:0.66268998px" />
      <path
         id="path2088"
         d="m 618.54,230.62 c -10.65,-0.83 -23.75,-4.97 -23.75,-4.97 l -2.46,10.78 26.21,4.15 z"
         inkscape:connector-curvature="0"
         style="fill-rule:evenodd;stroke:#000000;stroke-width:0.66268998px" />
      <path
         id="path2090"
         d="m 618.8,210.62 c -10.65,-0.83 -23.75,-4.98 -23.75,-4.98 l -2.46,10.78 26.21,4.15 z"
         inkscape:connector-curvature="0"
         style="fill-rule:evenodd;stroke:#000000;stroke-width:0.66268998px" />
      <path
         id="path2094"
         d="m 564.27,297.48 c -9.01,0 -186.77,-32.35 -186.77,-32.35 l 4.92,-9.95 5.73,-14.1 1.64,-11.62 v -35.67 l 185.95,34.84 3.27,18.25 v 14.11 l -0.82,13.27 -2.45,13.27 z"
         inkscape:connector-curvature="0"
         style="fill:#52636e;fill-rule:evenodd;stroke:#000000;stroke-width:0.66268998px" />
    </g>
  </g>
  <metadata
     id="metadata31">
    <rdf:RDF>
      <cc:Work>
        <dc:format>image/svg+xml</dc:format>
        <dc:type
           rdf:resource="http://purl.org/dc/dcmitype/StillImage" />
        <cc:license
           rdf:resource="http://creativecommons.org/publicdomain/zero/1.0/" />
        <dc:publisher>
          <cc:Agent
             rdf:about="http://openclipart.org/">
            <dc:title>Openclipart</dc:title>
          </cc:Agent>
        </dc:publisher>
        <dc:title></dc:title>
        <dc:date>2006-12-30T14:44:55</dc:date>
        <dc:description>clip art, clipart, drill, drill, electric, electric, image, machine, machine, media, png, public domain, svg, tool, tool, work, work, </dc:description>
        <dc:source>http://openclipart.org/detail/2505/drilling-machine-by-machovka</dc:source>
        <dc:creator>
          <cc:Agent>
            <dc:title>Machovka</dc:title>
          </cc:Agent>
        </dc:creator>
        <dc:subject>
          <rdf:Bag>
            <rdf:li>clip art</rdf:li>
            <rdf:li>clipart</rdf:li>
            <rdf:li>drill</rdf:li>
            <rdf:li>electric</rdf:li>
            <rdf:li>image</rdf:li>
            <rdf:li>machine</rdf:li>
            <rdf:li>media</rdf:li>
            <rdf:li>png</rdf:li>
            <rdf:li>public domain</rdf:li>
            <rdf:li>svg</rdf:li>
            <rdf:li>tool</rdf:li>
            <rdf:li>work</rdf:li>
          </rdf:Bag>
        </dc:subject>
      </cc:Work>
      <cc:License
         rdf:about="http://creativecommons.org/publicdomain/zero/1.0/">
        <cc:permits
           rdf:resource="http://creativecommons.org/ns#Reproduction" />
        <cc:permits
           rdf:resource="http://creativecommons.org/ns#Distribution" />
        <cc:permits
           rdf:resource="http://creativecommons.org/ns#DerivativeWorks" />
      </cc:License>
    </rdf:RDF>
  </metadata>
</svg>
