<?xml version="1.0" encoding="UTF-8" standalone="no"?>
<svg
   xmlns:dc="http://purl.org/dc/elements/1.1/"
   xmlns:cc="http://creativecommons.org/ns#"
   xmlns:rdf="http://www.w3.org/1999/02/22-rdf-syntax-ns#"
   xmlns:svg="http://www.w3.org/2000/svg"
   xmlns="http://www.w3.org/2000/svg"
   xmlns:sodipodi="http://sodipodi.sourceforge.net/DTD/sodipodi-0.dtd"
   xmlns:inkscape="http://www.inkscape.org/namespaces/inkscape"
   viewBox="0 0 1000 700"
   height="700"
   width="1000"
   xml:space="preserve"
   id="svg2"
   version="1.1"
   sodipodi:docname="education.svg"
   inkscape:version="0.92.3 (2405546, 2018-03-11)"><sodipodi:namedview
     pagecolor="#ffffff"
     bordercolor="#666666"
     borderopacity="1"
     objecttolerance="10"
     gridtolerance="10"
     guidetolerance="10"
     inkscape:pageopacity="0"
     inkscape:pageshadow="2"
     inkscape:window-width="1920"
     inkscape:window-height="1018"
     id="namedview49"
     showgrid="false"
     inkscape:zoom="0.59188418"
     inkscape:cx="397.66306"
     inkscape:cy="396.50815"
     inkscape:window-x="-8"
     inkscape:window-y="-8"
     inkscape:window-maximized="1"
     inkscape:current-layer="svg2" /><metadata
     id="metadata8"><rdf:RDF><cc:Work
         rdf:about=""><dc:format>image/svg+xml</dc:format><dc:type
           rdf:resource="http://purl.org/dc/dcmitype/StillImage" /><dc:title></dc:title></cc:Work></rdf:RDF></metadata><defs
     id="defs6" /><g
     transform="matrix(1.3333333,0,0,-1.3333333,148.67774,814.88736)"
     id="g10"><g
       transform="scale(0.1)"
       id="g12"><path
         id="path64"
         style="fill:#e9a860;fill-opacity:1;fill-rule:evenodd;stroke:none"
         d="m 4872.14,4575.91 h -143.23 c -176.9,0 -321.63,-144.73 -321.63,-321.63 V 2735.04 h 643.25 v 1662.48 c 0,98.11 -80.28,178.39 -178.39,178.39"
         inkscape:connector-curvature="0" /><path
         id="path66"
         style="fill:#b22822;fill-opacity:1;fill-rule:evenodd;stroke:none"
         d="M 4786.72,5894.55 H 2593.91 L 2103.34,4456.97 2593.91,2238.34 h 2192.81 v 3656.21"
         inkscape:connector-curvature="0" /><path
         id="path68"
         style="fill:#e9a860;fill-opacity:1;fill-rule:evenodd;stroke:none"
         d="m 315.68,4575.91 h 143.238 c 176.895,0 321.617,-144.73 321.617,-321.63 V 2735.04 H 137.289 v 1662.48 c 0,98.11 80.274,178.39 178.391,178.39"
         inkscape:connector-curvature="0" /><path
         id="path70"
         style="fill:#cc2c23;fill-opacity:1;fill-rule:evenodd;stroke:none"
         d="M 401.098,2238.34 H 2593.91 V 5894.56 H 401.098 V 2238.34"
         inkscape:connector-curvature="0" /><path
         id="path72"
         style="fill:#e0d8b4;fill-opacity:1;fill-rule:evenodd;stroke:none"
         d="M 630.484,2458.55 H 2787.09 v 853.26 H 630.484 v -853.26"
         inkscape:connector-curvature="0" /><path
         id="path74"
         style="fill:#f6f2e1;fill-opacity:1;fill-rule:evenodd;stroke:none"
         d="m 2593.91,2605.34 c -526.02,761.52 -1308.95,0 -1963.437,0 v 3110.3 c 654.487,0 1327.317,596.38 1963.437,0 L 2987.85,4390.08 2593.91,2605.34"
         inkscape:connector-curvature="0" /><path
         id="path76"
         style="fill:#e0d8b4;fill-opacity:1;fill-rule:evenodd;stroke:none"
         d="m 2408.1,5660.99 c -124.5,56.89 -248.28,99.67 -373.54,105.65 -124.4,5.95 -249.18,-19.73 -373.86,-48.46 0.48,-432.78 1.13,-865.56 1.95,-1298.05 0.83,-431.91 1.48,-864.69 1.65,-1297.18 124.03,33.1 248.2,62.26 372.07,58.06 124.63,-4.24 247.88,-45.58 371.73,-99.27 0,429.58 0,859.46 0,1289.34 0,429.58 0,859.74 0,1289.91"
         inkscape:connector-curvature="0" /><path
         id="path78"
         style="fill:#e3dab0;fill-opacity:1;fill-rule:evenodd;stroke:none"
         d="m 1512.68,5675.22 c -124.35,-40.35 -248.02,-83.67 -373.39,-117.86 -123.73,-33.74 -249.188,-51.66 -373.876,-60.07 0.824,-438.59 2.301,-877.46 4.113,-1315.47 1.801,-438.28 3.118,-876.88 3.61,-1315.44 124.191,9.85 249.333,29.34 372.233,68.2 125.09,39.53 247.89,90.85 371.58,137.87 -0.33,433.65 -0.99,867.59 -1.97,1300.95 -0.98,433.64 -1.81,867.88 -2.3,1301.82"
         inkscape:connector-curvature="0" /><path
         id="path80"
         style="fill:#fbc589;fill-opacity:1;fill-rule:evenodd;stroke:none"
         d="M 215.309,959.898 V 1621.42 L 0,1994.34 v 804.76 c 0,201.16 99.707,373.86 273.91,474.44 l 918.17,530.1 c 52.11,30.09 111,31.56 164.56,4.11 53.54,-27.46 86.74,-76.12 92.73,-136 21.52,-214.85 -82.59,-427.29 -278.79,-540.56 L 716.059,2868.77 C 900.176,2659.68 910.613,2529.8 891.871,2234.15 h 754.239 v -103.59 c 0,-200.72 -100,-373.03 -274.26,-472.62 l -11.9,-6.79 V 959.898 H 215.309"
         inkscape:connector-curvature="0" /><path
         id="path82"
         style="fill:#e9a860;fill-opacity:1;fill-rule:evenodd;stroke:none"
         d="m 892.141,2238.34 v -267.6 c 62.714,114.66 195.779,208.22 456.699,263.41 l -456.699,4.19"
         inkscape:connector-curvature="0" /><path
         id="path84"
         style="fill:#d8cfa6;fill-opacity:1;fill-rule:evenodd;stroke:none"
         d="m 2593.91,2458.55 h 1963.44 v 853.26 H 2593.91 v -853.26"
         inkscape:connector-curvature="0" /><path
         id="path86"
         style="fill:#ebe7ce;fill-opacity:1;fill-rule:evenodd;stroke:none"
         d="m 2593.91,2605.34 c 526.03,761.52 1308.96,0 1963.44,0 v 3110.3 c -654.48,0 -1327.32,596.38 -1963.44,0 v -3110.3"
         inkscape:connector-curvature="0" /><path
         id="path88"
         style="fill:#d8cfa6;fill-opacity:1;fill-rule:evenodd;stroke:none"
         d="m 2772.25,5660.99 c 124.52,56.89 248.3,99.67 373.55,105.65 124.4,5.95 249.2,-19.73 373.87,-48.46 -0.5,-432.78 -1.15,-865.56 -1.97,-1298.05 -0.81,-431.91 -1.47,-864.69 -1.64,-1297.18 -124.02,33.1 -248.19,62.26 -372.06,58.06 -124.64,-4.24 -247.89,-45.58 -371.75,-99.27 0,429.58 0,859.46 0,1289.34 0,429.58 0,859.74 0,1289.91"
         inkscape:connector-curvature="0" /><path
         id="path90"
         style="fill:#d8cfa6;fill-opacity:1;fill-rule:evenodd;stroke:none"
         d="m 3667.69,5675.22 c 124.35,-40.35 248.02,-83.67 373.38,-117.86 123.74,-33.74 249.19,-51.66 373.89,-60.07 -0.83,-438.59 -2.32,-877.46 -4.13,-1315.47 -1.79,-438.28 -3.11,-876.88 -3.61,-1315.44 -124.18,9.85 -249.32,29.34 -372.22,68.2 -125.09,39.53 -247.89,90.85 -371.59,137.87 0.34,433.65 0.99,867.59 1.97,1300.95 0.99,433.64 1.81,867.88 2.31,1301.82"
         inkscape:connector-curvature="0" /><path
         id="path92"
         style="fill:#fbc589;fill-opacity:1;fill-rule:evenodd;stroke:none"
         d="m 4972.51,959.898 v 661.522 l 215.32,372.92 v 804.76 c 0,201.16 -99.71,373.86 -273.93,474.44 l -918.15,530.1 c -52.12,30.09 -111.01,31.56 -164.56,4.11 -53.56,-27.46 -86.74,-76.12 -92.75,-136 -21.5,-214.85 82.6,-427.29 278.8,-540.56 l 454.52,-262.42 C 4287.65,2659.68 4277.21,2529.8 4295.95,2234.15 h -754.24 v -103.59 c 0,-200.72 99.99,-373.03 274.27,-472.62 l 11.91,-6.79 V 959.898 h 1144.62"
         inkscape:connector-curvature="0" /><path
         id="path94"
         style="fill:#e9a860;fill-opacity:1;fill-rule:evenodd;stroke:none"
         d="m 4295.68,2238.34 v -267.6 c -62.72,114.66 -195.77,208.22 -456.7,263.41 l 456.7,4.19"
         inkscape:connector-curvature="0" /><path
         id="path96"
         style="fill:#87b027;fill-opacity:1;fill-rule:evenodd;stroke:none"
         d="m 2593.91,5715.64 c 95.36,149.43 261.34,224.9 460.79,265.28 V 3726.26 l -230.39,269.07 -230.4,-534.35 v 2254.66"
         inkscape:connector-curvature="0" /></g></g></svg>