<?xml version="1.0" encoding="UTF-8" standalone="no"?>
<svg
   xmlns:dc="http://purl.org/dc/elements/1.1/"
   xmlns:cc="http://creativecommons.org/ns#"
   xmlns:rdf="http://www.w3.org/1999/02/22-rdf-syntax-ns#"
   xmlns:svg="http://www.w3.org/2000/svg"
   xmlns="http://www.w3.org/2000/svg"
   xmlns:sodipodi="http://sodipodi.sourceforge.net/DTD/sodipodi-0.dtd"
   xmlns:inkscape="http://www.inkscape.org/namespaces/inkscape"
   viewBox="0 0 999.99999 699.99999"
   height="700"
   width="1000"
   xml:space="preserve"
   id="svg2"
   version="1.1"
   sodipodi:docname="geoobject.svg"
   inkscape:version="0.92.3 (2405546, 2018-03-11)"><sodipodi:namedview
     pagecolor="#ffffff"
     bordercolor="#666666"
     borderopacity="1"
     objecttolerance="10"
     gridtolerance="10"
     guidetolerance="10"
     inkscape:pageopacity="0"
     inkscape:pageshadow="2"
     inkscape:window-width="1920"
     inkscape:window-height="1018"
     id="namedview94"
     showgrid="false"
     fit-margin-top="0"
     fit-margin-left="0"
     fit-margin-right="0"
     fit-margin-bottom="0"
     inkscape:zoom="0.64192068"
     inkscape:cx="534.67693"
     inkscape:cy="283.95468"
     inkscape:window-x="-8"
     inkscape:window-y="-8"
     inkscape:window-maximized="1"
     inkscape:current-layer="g12" /><metadata
     id="metadata8"><rdf:RDF><cc:Work
         rdf:about=""><dc:format>image/svg+xml</dc:format><dc:type
           rdf:resource="http://purl.org/dc/dcmitype/StillImage" /><dc:title></dc:title></cc:Work></rdf:RDF></metadata><defs
     id="defs6" /><g
     transform="matrix(1.3333333,0,0,-1.3333333,0,885.03866)"
     id="g10"><g
       transform="scale(0.1)"
       id="g12"><path
         id="path64"
         style="fill:#47bc52;fill-opacity:1;fill-rule:evenodd;stroke:none;stroke-width:1.15676343"
         d="M 88.418438,3720.897 3752.5243,5836.3628 7416.6418,3720.897 3752.5243,1605.4312 88.418438,3720.897"
         inkscape:connector-curvature="0" /><path
         id="path66"
         style="fill:#267837;fill-opacity:1;fill-rule:evenodd;stroke:none;stroke-width:1.15676343"
         d="m 3752.5243,2045.2674 h 761.8328 L 7416.6418,3720.897 5644.3761,4744.1005 3752.5243,2045.2674"
         inkscape:connector-curvature="0" /><path
         id="path68"
         style="fill:#c6bed3;fill-opacity:1;fill-rule:evenodd;stroke:none;stroke-width:1.15676343"
         d="M 852.96729,3719.3238 V 4923.8731 L 2302.7527,4086.8275 V 2882.2898 l -126.5615,73.0959 v 115.5028 l -233.4926,134.7976 -93.4318,-61.5629 -551.996,318.6883 v 115.5028 l -233.5065,134.8324 -93.42261,-61.5977 -117.3744,67.7748"
         inkscape:connector-curvature="0" /><path
         id="path70"
         style="fill:#c6bed3;fill-opacity:1;fill-rule:evenodd;stroke:none;stroke-width:1.15676343"
         d="m 6652.1021,3719.3238 v 933.4039 L 5202.319,4086.8275 V 2882.2898 l 172.6816,99.7014 v 115.5376 l 1026.6276,592.7371 93.4549,-61.5861 157.019,90.644"
         inkscape:connector-curvature="0" /><path
         id="path72"
         style="fill:#544e67;fill-opacity:1;fill-rule:evenodd;stroke:none;stroke-width:1.15676343"
         d="M 3602.897,4937.8468 5202.319,5562.152 6801.7295,4638.7425 5202.319,4014.4373 3602.897,4937.8468"
         inkscape:connector-curvature="0" /><path
         id="path74"
         style="fill:#544e67;fill-opacity:1;fill-rule:evenodd;stroke:none;stroke-width:1.15676343"
         d="M 700.27449,4938.136 2302.7527,5563.6442 3905.2171,4638.4417 2302.7527,4012.9682 700.27449,4938.136"
         inkscape:connector-curvature="0" /><path
         id="path76"
         style="fill:#ede6f4;fill-opacity:1;fill-rule:evenodd;stroke:none;stroke-width:1.15676343"
         d="M 2302.7527,2882.2898 V 5019.2714 L 3752.5243,4182.2489 V 2045.2674 l -1449.7716,837.0224"
         inkscape:connector-curvature="0" /><path
         id="path78"
         style="fill:#413c50;fill-opacity:1;fill-rule:evenodd;stroke:none;stroke-width:1.15676343"
         d="M 4278.8864,5574.9921 6264.0312,4428.8593 5202.319,4014.4373 Z"
         inkscape:connector-curvature="0" /><path
         id="path80"
         style="fill:#e5ddef;fill-opacity:1;fill-rule:evenodd;stroke:none;stroke-width:1.15676343"
         d="M 5202.319,2882.2898 V 5442.5195 L 3752.5243,4182.2489 V 2045.2674 l 959.3155,553.8583 v 115.5144 l 233.5042,134.8323 93.4318,-61.5976 163.5432,94.415"
         inkscape:connector-curvature="0" /><path
         id="path82"
         style="fill:#aca5bb;fill-opacity:1;fill-rule:evenodd;stroke:none;stroke-width:1.15676343"
         d="m 5202.319,3923.3306 1449.7831,419.9282 v 237.0671 L 5202.319,4014.4373 v -91.1067"
         inkscape:connector-curvature="0" /><path
         id="path84"
         style="fill:#68627c;fill-opacity:1;fill-rule:evenodd;stroke:none;stroke-width:1.15676343"
         d="M 2164.8087,4999.1437 3752.5243,6379.3128 5340.2399,5462.6472 3752.5243,4082.4781 2164.8087,4999.1437"
         inkscape:connector-curvature="0" /><path
         id="path86"
         style="fill:#292531;fill-opacity:1;fill-rule:evenodd;stroke:none;stroke-width:1.15676343"
         d="m 6401.6282,3690.2659 v 706.1115 L 5375.0006,3803.6403 v -706.1115 l 1026.6276,592.7371"
         inkscape:connector-curvature="0" /><path
         id="path88"
         style="fill:#ede6f4;fill-opacity:1;fill-rule:evenodd;stroke:none;stroke-width:1.15676343"
         d="m 6495.0831,3628.6798 -93.4549,61.5861 v 706.1115 l 93.4549,53.9515 v -821.6491"
         inkscape:connector-curvature="0" /><path
         id="path90"
         style="fill:#aca5bb;fill-opacity:1;fill-rule:evenodd;stroke:none;stroke-width:1.15676343"
         d="M 852.96729,4754.1065 2302.7527,3745.6055 v 267.3627 L 852.96729,4849.9906 v -95.8841"
         inkscape:connector-curvature="0" /><path
         id="path92"
         style="fill:#e5ddef;fill-opacity:1;fill-rule:evenodd;stroke:none;stroke-width:1.15676343"
         d="M 2302.7527,4822.7141 3752.5243,3758.006 v 324.4721 l -1449.76,837.034 -0.012,-96.798"
         inkscape:connector-curvature="0" /><path
         id="path94"
         style="fill:#c6bed3;fill-opacity:1;fill-rule:evenodd;stroke:none;stroke-width:1.15676343"
         d="M 3752.5243,3758.006 5202.319,4849.1577 v 493.5794 L 3752.5243,4082.4781 V 3758.006"
         inkscape:connector-curvature="0" /><path
         id="path96"
         style="fill:#292531;fill-opacity:1;fill-rule:evenodd;stroke:none;stroke-width:1.15676343"
         d="m 4945.344,2849.4724 v 706.1231 l -233.5042,-134.8323 v -706.1231 l 233.5042,134.8323"
         inkscape:connector-curvature="0" /><path
         id="path98"
         style="fill:#fbf9fd;fill-opacity:1;fill-rule:evenodd;stroke:none;stroke-width:1.15676343"
         d="m 5038.7758,2787.8748 -93.4318,61.5976 v 706.1231 l 93.4318,53.9514 v -821.6721"
         inkscape:connector-curvature="0" /><path
         id="path100"
         style="fill:#fbf9fd;fill-opacity:1;fill-rule:evenodd;stroke:none;stroke-width:1.15676343"
         d="m 4443.4475,2760.3438 v 524.3377 l -536.6572,-309.8506 v -524.3493 l 536.6572,309.8622"
         inkscape:connector-curvature="0" /><path
         id="path102"
         style="fill:#68627c;fill-opacity:1;fill-rule:evenodd;stroke:none;stroke-width:1.15676343"
         d="m 4406.4542,2787.9789 v 475.3141 l -499.6639,-288.4853 v -475.3256 l 499.6639,288.4968"
         inkscape:connector-curvature="0" /><path
         id="path104"
         style="fill:#87809d;fill-opacity:1;fill-rule:evenodd;stroke:none;stroke-width:1.15676343"
         d="m 4065.1859,3066.2846 -91.9627,-53.107 v -475.3372 l 91.9627,53.0838 z m 260.237,150.2635 -171.4207,-98.9958 v -475.314 l 171.4207,98.9726 v 475.3372 0"
         inkscape:connector-curvature="0" /><path
         id="path106"
         style="fill:#87809d;fill-opacity:1;fill-rule:evenodd;stroke:none;stroke-width:1.15676343"
         d="m 4213.2053,2860.2535 v 291.4812 l -306.415,-176.927 v -291.4696 l 306.415,176.9154"
         inkscape:connector-curvature="0" /><path
         id="path108"
         style="fill:#a398ba;fill-opacity:1;fill-rule:evenodd;stroke:none;stroke-width:1.15676343"
         d="m 4065.1859,3066.2846 -91.9627,-53.107 v -291.4697 l 91.9627,53.0839 z m 148.0194,-206.0311 v 291.4812 l -59.2031,-34.1824 v -291.4696 l 59.2031,34.1708 v 0"
         inkscape:connector-curvature="0" /><path
         id="path110"
         style="fill:#fbf9fd;fill-opacity:1;fill-rule:evenodd;stroke:none;stroke-width:1.15676343"
         d="m 4443.4475,3712.6955 v 524.3378 l -536.6572,-309.8507 v -524.3608 l 536.6572,309.8737"
         inkscape:connector-curvature="0" /><path
         id="path112"
         style="fill:#68627c;fill-opacity:1;fill-rule:evenodd;stroke:none;stroke-width:1.15676343"
         d="m 4406.4542,3740.3538 v 475.314 L 3906.7903,3927.1826 V 3451.857 l 499.6639,288.4968"
         inkscape:connector-curvature="0" /><path
         id="path114"
         style="fill:#87809d;fill-opacity:1;fill-rule:evenodd;stroke:none;stroke-width:1.15676343"
         d="m 4065.1859,4018.6363 -91.9627,-53.0954 v -475.3257 l 91.9627,53.0839 z m 260.237,150.252 -171.4207,-98.9842 v -475.3025 l 171.4207,98.9726 v 475.3141 0"
         inkscape:connector-curvature="0" /><path
         id="path116"
         style="fill:#87809d;fill-opacity:1;fill-rule:evenodd;stroke:none;stroke-width:1.15676343"
         d="m 4213.2053,3812.6168 v 291.4812 l -306.415,-176.9154 v -291.4812 l 306.415,176.9154"
         inkscape:connector-curvature="0" /><path
         id="path118"
         style="fill:#a398ba;fill-opacity:1;fill-rule:evenodd;stroke:none;stroke-width:1.15676343"
         d="m 4065.1859,4018.6363 -91.9627,-53.0954 v -291.4697 l 91.9627,53.0954 z m 148.0194,-206.0195 v 291.4812 l -59.2031,-34.1939 v -291.4697 l 59.2031,34.1824 v 0"
         inkscape:connector-curvature="0" /><path
         id="path120"
         style="fill:#fbf9fd;fill-opacity:1;fill-rule:evenodd;stroke:none;stroke-width:1.15676343"
         d="m 5040.7423,4057.5383 v 524.3493 l -536.6804,-309.8623 v -524.3377 l 536.6804,309.8507"
         inkscape:connector-curvature="0" /><path
         id="path122"
         style="fill:#68627c;fill-opacity:1;fill-rule:evenodd;stroke:none;stroke-width:1.15676343"
         d="m 5003.7374,4085.1965 v 475.3256 l -499.6755,-288.4968 v -475.3372 l 499.6755,288.5084"
         inkscape:connector-curvature="0" /><path
         id="path124"
         style="fill:#87809d;fill-opacity:1;fill-rule:evenodd;stroke:none;stroke-width:1.15676343"
         d="m 4662.446,4363.4791 -91.9396,-53.0839 v -475.3488 l 91.9396,53.0954 z m 260.2602,150.2635 -171.4092,-98.9842 v -475.3257 l 171.4092,98.9843 v 475.3256 0"
         inkscape:connector-curvature="0" /><path
         id="path126"
         style="fill:#87809d;fill-opacity:1;fill-rule:evenodd;stroke:none;stroke-width:1.15676343"
         d="m 4810.4654,4157.4595 v 291.4697 l -306.4035,-176.9039 v -291.4928 l 306.4035,176.927"
         inkscape:connector-curvature="0" /><path
         id="path128"
         style="fill:#a398ba;fill-opacity:1;fill-rule:evenodd;stroke:none;stroke-width:1.15676343"
         d="m 4662.446,4363.4791 -91.9396,-53.0839 v -291.4928 l 91.9396,53.0954 z m 148.0194,-206.0196 v 291.4697 l -59.1684,-34.1708 v -291.4697 l 59.1684,34.1708 v 0"
         inkscape:connector-curvature="0" /><path
         id="path130"
         style="fill:#fbf9fd;fill-opacity:1;fill-rule:evenodd;stroke:none;stroke-width:1.15676343"
         d="m 3055.9908,3712.6955 v 524.3378 l 536.6572,-309.8507 v -524.3608 l -536.6572,309.8737"
         inkscape:connector-curvature="0" /><path
         id="path132"
         style="fill:#68627c;fill-opacity:1;fill-rule:evenodd;stroke:none;stroke-width:1.15676343"
         d="m 3092.9956,3740.3538 v 475.314 L 3592.648,3927.1826 V 3451.857 l -499.6524,288.4968"
         inkscape:connector-curvature="0" /><path
         id="path134"
         style="fill:#87809d;fill-opacity:1;fill-rule:evenodd;stroke:none;stroke-width:1.15676343"
         d="m 3434.2524,4018.6363 91.9627,-53.0954 v -475.3257 l -91.9627,53.0839 z m -260.237,150.252 171.4207,-98.9842 v -475.3025 l -171.4207,98.9726 v 475.3141 0"
         inkscape:connector-curvature="0" /><path
         id="path136"
         style="fill:#87809d;fill-opacity:1;fill-rule:evenodd;stroke:none;stroke-width:1.15676343"
         d="m 3286.2561,3812.6168 v 291.4812 l 306.3919,-176.9154 v -291.4812 l -306.3919,176.9154"
         inkscape:connector-curvature="0" /><path
         id="path138"
         style="fill:#a398ba;fill-opacity:1;fill-rule:evenodd;stroke:none;stroke-width:1.15676343"
         d="m 3434.2524,4018.6363 91.9627,-53.0954 v -291.4697 l -91.9627,53.0954 z m -147.9963,-206.0195 v 291.4812 l 59.18,-34.1939 v -291.4697 l -59.18,34.1824 v 0"
         inkscape:connector-curvature="0" /><path
         id="path140"
         style="fill:#fbf9fd;fill-opacity:1;fill-rule:evenodd;stroke:none;stroke-width:1.15676343"
         d="m 2458.7076,4057.5383 v 524.3493 l 536.6804,-309.8623 v -524.3377 l -536.6804,309.8507"
         inkscape:connector-curvature="0" /><path
         id="path142"
         style="fill:#68627c;fill-opacity:1;fill-rule:evenodd;stroke:none;stroke-width:1.15676343"
         d="m 2495.7124,4085.1965 v 475.3256 l 499.6756,-288.4968 v -475.3372 l -499.6756,288.5084"
         inkscape:connector-curvature="0" /><path
         id="path144"
         style="fill:#87809d;fill-opacity:1;fill-rule:evenodd;stroke:none;stroke-width:1.15676343"
         d="m 2836.9923,4363.4791 91.9512,-53.0839 v -475.3488 l -91.9512,53.0954 z m -260.2486,150.2635 171.4208,-98.9842 v -475.3257 l -171.4208,98.9843 v 475.3256 0"
         inkscape:connector-curvature="0" /><path
         id="path146"
         style="fill:#87809d;fill-opacity:1;fill-rule:evenodd;stroke:none;stroke-width:1.15676343"
         d="m 2688.9845,4157.4595 v 291.4697 l 306.4035,-176.9039 v -291.4928 l -306.4035,176.927"
         inkscape:connector-curvature="0" /><path
         id="path148"
         style="fill:#a398ba;fill-opacity:1;fill-rule:evenodd;stroke:none;stroke-width:1.15676343"
         d="m 2836.9923,4363.4791 91.9512,-53.0839 v -291.4928 l -91.9512,53.0954 z m -148.0078,-206.0196 v 291.4697 l 59.18,-34.1708 v -291.4697 l -59.18,34.1708 v 0"
         inkscape:connector-curvature="0" /><path
         id="path150"
         style="fill:#fbf9fd;fill-opacity:1;fill-rule:evenodd;stroke:none;stroke-width:1.15676343"
         d="m 3055.9908,2760.3438 v 524.3377 l 536.6572,-309.8506 v -524.3493 l -536.6572,309.8622"
         inkscape:connector-curvature="0" /><path
         id="path152"
         style="fill:#68627c;fill-opacity:1;fill-rule:evenodd;stroke:none;stroke-width:1.15676343"
         d="m 3092.9956,2787.9789 v 475.3141 l 499.6524,-288.4853 v -475.3256 l -499.6524,288.4968"
         inkscape:connector-curvature="0" /><path
         id="path154"
         style="fill:#87809d;fill-opacity:1;fill-rule:evenodd;stroke:none;stroke-width:1.15676343"
         d="m 3434.2524,3066.2846 91.9627,-53.107 v -475.3372 l -91.9627,53.0838 z m -260.237,150.2635 171.4207,-98.9958 v -475.314 l -171.4207,98.9726 v 475.3372 0"
         inkscape:connector-curvature="0" /><path
         id="path156"
         style="fill:#87809d;fill-opacity:1;fill-rule:evenodd;stroke:none;stroke-width:1.15676343"
         d="m 3286.2561,2860.2535 v 291.4812 l 306.3919,-176.927 v -291.4696 l -306.3919,176.9154"
         inkscape:connector-curvature="0" /><path
         id="path158"
         style="fill:#a398ba;fill-opacity:1;fill-rule:evenodd;stroke:none;stroke-width:1.15676343"
         d="m 3434.2524,3066.2846 91.9627,-53.107 v -291.4697 l -91.9627,53.0839 z m -147.9963,-206.0311 v 291.4812 l 59.18,-34.1824 v -291.4696 l -59.18,34.1708 v 0"
         inkscape:connector-curvature="0" /><path
         id="path160"
         style="fill:#fbf9fd;fill-opacity:1;fill-rule:evenodd;stroke:none;stroke-width:1.15676343"
         d="m 2458.7076,3105.1865 v 524.3262 l 536.6804,-309.8622 v -524.3262 l -536.6804,309.8622"
         inkscape:connector-curvature="0" /><path
         id="path162"
         style="fill:#68627c;fill-opacity:1;fill-rule:evenodd;stroke:none;stroke-width:1.15676343"
         d="m 2495.7124,3132.8447 v 475.3026 L 2995.388,3319.6505 V 2844.348 l -499.6756,288.4967"
         inkscape:connector-curvature="0" /><path
         id="path164"
         style="fill:#87809d;fill-opacity:1;fill-rule:evenodd;stroke:none;stroke-width:1.15676343"
         d="m 2836.9923,3411.1042 91.9512,-53.0955 v -475.3025 l -91.9512,53.0723 z m -260.2486,150.2751 171.4208,-98.9842 v -475.3257 l -171.4208,98.9843 v 475.3256 0"
         inkscape:connector-curvature="0" /><path
         id="path166"
         style="fill:#87809d;fill-opacity:1;fill-rule:evenodd;stroke:none;stroke-width:1.15676343"
         d="m 2688.9845,3205.0962 v 291.4697 l 306.4035,-176.9154 v -291.4697 l -306.4035,176.9154"
         inkscape:connector-curvature="0" /><path
         id="path168"
         style="fill:#a398ba;fill-opacity:1;fill-rule:evenodd;stroke:none;stroke-width:1.15676343"
         d="m 2836.9923,3411.1042 91.9512,-53.0955 v -291.4581 l -91.9512,53.0723 z m -148.0078,-206.008 v 291.4697 l 59.18,-34.1708 v -291.4928 l -59.18,34.1939 v 0"
         inkscape:connector-curvature="0" /><path
         id="path170"
         style="fill:#292531;fill-opacity:1;fill-rule:evenodd;stroke:none;stroke-width:1.15676343"
         d="m 1063.7643,3713.1467 v 706.1231 l 233.5065,-134.8208 v -706.1347 l -233.5065,134.8324"
         inkscape:connector-curvature="0" /><path
         id="path172"
         style="fill:#fbf9fd;fill-opacity:1;fill-rule:evenodd;stroke:none;stroke-width:1.15676343"
         d="m 970.34169,3651.549 93.42261,61.5977 v 706.1231 l -93.42261,53.9514 V 3651.549"
         inkscape:connector-curvature="0" /><path
         id="path174"
         style="fill:#292531;fill-opacity:1;fill-rule:evenodd;stroke:none;stroke-width:1.15676343"
         d="m 1942.6986,3205.6861 v 706.1347 l 233.4926,-134.8092 v -706.1231 l -233.4926,134.7976"
         inkscape:connector-curvature="0" /><path
         id="path176"
         style="fill:#fbf9fd;fill-opacity:1;fill-rule:evenodd;stroke:none;stroke-width:1.15676343"
         d="m 1849.2668,3144.1232 93.4318,61.5629 v 706.1347 l -93.4318,53.9514 v -821.649"
         inkscape:connector-curvature="0" /><path
         id="path178"
         style="fill:#fbf9fd;fill-opacity:1;fill-rule:evenodd;stroke:none;stroke-width:1.15676343"
         d="m 1337.0635,3813.2298 v 449.6571 l 460.2415,-265.7432 v -449.6571 l -460.2415,265.7432"
         inkscape:connector-curvature="0" /><path
         id="path180"
         style="fill:#68627c;fill-opacity:1;fill-rule:evenodd;stroke:none;stroke-width:1.15676343"
         d="m 1368.7935,3836.9204 v 407.6434 l 428.5115,-247.4201 v -407.6319 l -428.5115,247.4086"
         inkscape:connector-curvature="0" /><path
         id="path182"
         style="fill:#87809d;fill-opacity:1;fill-rule:evenodd;stroke:none;stroke-width:1.15676343"
         d="m 1661.4778,4075.5722 78.8566,-45.5302 v -407.6318 l -78.8566,45.5186 z m -223.1975,128.875 147.0015,-84.8833 v -407.6434 l -147.0015,84.9064 v 407.6203 0"
         inkscape:connector-curvature="0" /><path
         id="path184"
         style="fill:#87809d;fill-opacity:1;fill-rule:evenodd;stroke:none;stroke-width:1.15676343"
         d="m 1534.5462,3898.8997 v 249.965 l 262.7588,-151.721 v -249.965 l -262.7588,151.721"
         inkscape:connector-curvature="0" /><path
         id="path186"
         style="fill:#a398ba;fill-opacity:1;fill-rule:evenodd;stroke:none;stroke-width:1.15676343"
         d="m 1661.4778,4075.5722 78.8566,-45.5302 v -249.9766 l -78.8566,45.5534 z m -126.9316,-176.6725 v 249.965 l 50.7356,-29.3008 v -249.9765 l -50.7356,29.3123 v 0"
         inkscape:connector-curvature="0" /></g></g></svg>