<?xml version="1.0" encoding="UTF-8" standalone="no"?>
<svg
   xmlns:dc="http://purl.org/dc/elements/1.1/"
   xmlns:cc="http://creativecommons.org/ns#"
   xmlns:rdf="http://www.w3.org/1999/02/22-rdf-syntax-ns#"
   xmlns:svg="http://www.w3.org/2000/svg"
   xmlns="http://www.w3.org/2000/svg"
   xmlns:sodipodi="http://sodipodi.sourceforge.net/DTD/sodipodi-0.dtd"
   xmlns:inkscape="http://www.inkscape.org/namespaces/inkscape"
   id="svg1"
   viewBox="0 0 1000 700"
   sodipodi:version="0.32"
   _SVGFile__filename="oldscale/apps/winprops.svg"
   version="1.0"
   inkscape:version="0.92.3 (2405546, 2018-03-11)"
   y="0"
   x="0"
   sodipodi:docname="online_application.svg"
   width="1000"
   height="700">
  <defs
     id="defs15" />
  <sodipodi:namedview
     id="base"
     bordercolor="#666666"
     inkscape:window-x="-8"
     inkscape:window-y="-8"
     pagecolor="#ffffff"
     inkscape:zoom="0.61425863"
     inkscape:pageshadow="2"
     borderopacity="1.0"
     inkscape:current-layer="svg1"
     inkscape:cx="362.38161"
     inkscape:cy="145.23829"
     inkscape:window-width="1920"
     inkscape:pageopacity="0.0"
     inkscape:window-height="1018"
     showgrid="false"
     fit-margin-top="0"
     fit-margin-left="0"
     fit-margin-right="0"
     fit-margin-bottom="0"
     inkscape:window-maximized="1" />
  <path
     id="path1111"
     style="fill:none;stroke:#ffffff;stroke-width:8.125;stroke-linecap:round;stroke-linejoin:round"
     d="m -59.733604,649.12597 c -1.2723,0 -2.2967,1.3407 -2.2967,3.0061 v 44.294 c 0,1.665 1.0244,3.006 2.2967,3.006 h 46.032 c 1.273,0 2.297,-1.341 2.297,-3.006 v -44.294 c 0,-1.665 -1.024,-3.0057 -2.297,-3.0057 h -46.032 z"
     inkscape:connector-curvature="0" />
  <g
     id="g1098"
     transform="matrix(11.522267,0,0,11.522267,151.5562,2.1565914)">
    <g
       id="g1563"
       transform="translate(-0.0729,-0.41224)">
      <rect
         id="rect985"
         style="fill:#ffffff;fill-rule:evenodd;stroke-width:2.73149991;stroke-linecap:round;stroke-linejoin:round"
         transform="matrix(1,0,0,1.3089,0,-8.4847)"
         rx="2.3673"
         ry="2.3673"
         height="39.617001"
         width="52.183998"
         y="9.9925003"
         x="3.9588001" />
      <path
         id="path986"
         style="fill:#5e8fcb;fill-rule:evenodd;stroke-width:3.125;stroke-linecap:round;stroke-linejoin:round"
         d="m 6.28,4.4817 c -1.286,0 -2.3212,1.0353 -2.3212,2.3212 v 4.0791 c 0,1.286 1.0352,2.321 2.3212,2.321 h 47.542 c 1.286,0 2.321,-1.035 2.321,-2.321 V 6.8029 c 0,-1.2859 -1.035,-2.3212 -2.321,-2.3212 z"
         inkscape:connector-curvature="0" />
      <path
         id="path987"
         style="fill:none;stroke:#000000;stroke-width:1.93270004;stroke-linecap:round;stroke-linejoin:round"
         d="M 53.029,7.6135 50.323,10.32 M 50.26,7.5506 53.029,10.32"
         inkscape:connector-curvature="0" />
      <path
         id="rect1561"
         style="fill:none;stroke:#000000;stroke-width:2.81559992;stroke-linecap:round;stroke-linejoin:round"
         transform="matrix(1,0,0,1.3089,0,-8.4847)"
         d="m 6.3262,9.9925 c -1.3116,0 -2.3674,1.0555 -2.3674,2.3675 v 34.883 c 0,1.311 1.0558,2.367 2.3674,2.367 h 47.45 c 1.311,0 2.367,-1.056 2.367,-2.367 V 12.36 c 0,-1.312 -1.056,-2.3675 -2.367,-2.3675 z"
         inkscape:connector-curvature="0" />
      <path
         id="rect1558"
         style="fill:none;stroke:#000000;stroke-width:3.22119999;stroke-linecap:round;stroke-linejoin:round"
         d="m 3.9588,10.882 c 0,1.286 1.0352,2.321 2.3212,2.321 h 47.546 c 1.286,0 2.321,-1.035 2.321,-2.321"
         inkscape:connector-curvature="0" />
    </g>
    <path
       id="path705"
       style="fill:#000000;fill-rule:evenodd;stroke:#000000;stroke-width:0.25558999;stroke-linecap:round;stroke-linejoin:round"
       d="m 16.989,44.445 3.031,3.176 4.908,-3.32 3.897,1.732 1.3,5.689 4.186,-0.038 1.154,-5.838 3.898,-1.545 4.908,3.176 2.309,-3.176 -5.57,-5.257 C 26.735,52.138 14.398,31.958 26.66,23.515 v -3.032 l -1.443,0.722 -4.475,-2.845 -3.091,2.539 2.802,4.781 -1.588,3.897 -5.468,0.909 -0.017,4.143 5.63,1.444 1.551,3.789 z"
       inkscape:connector-curvature="0" />
  </g>
  <metadata
     id="metadata12">
    <rdf:RDF>
      <cc:Work>
        <dc:format>image/svg+xml</dc:format>
        <dc:type
           rdf:resource="http://purl.org/dc/dcmitype/StillImage" />
        <cc:license
           rdf:resource="http://creativecommons.org/publicdomain/zero/1.0/" />
        <dc:publisher>
          <cc:Agent
             rdf:about="http://openclipart.org/">
            <dc:title>Openclipart</dc:title>
          </cc:Agent>
        </dc:publisher>
        <dc:title></dc:title>
      </cc:Work>
      <cc:License
         rdf:about="http://creativecommons.org/publicdomain/zero/1.0/">
        <cc:permits
           rdf:resource="http://creativecommons.org/ns#Reproduction" />
        <cc:permits
           rdf:resource="http://creativecommons.org/ns#Distribution" />
        <cc:permits
           rdf:resource="http://creativecommons.org/ns#DerivativeWorks" />
      </cc:License>
    </rdf:RDF>
  </metadata>
</svg>
