<?xml version="1.0" encoding="UTF-8" standalone="no"?>
<svg
   xmlns:dc="http://purl.org/dc/elements/1.1/"
   xmlns:cc="http://creativecommons.org/ns#"
   xmlns:rdf="http://www.w3.org/1999/02/22-rdf-syntax-ns#"
   xmlns:svg="http://www.w3.org/2000/svg"
   xmlns="http://www.w3.org/2000/svg"
   xmlns:sodipodi="http://sodipodi.sourceforge.net/DTD/sodipodi-0.dtd"
   xmlns:inkscape="http://www.inkscape.org/namespaces/inkscape"
   version="1.1"
   x="0"
   y="0"
   width="1000"
   height="700"
   viewBox="0 0 1000 700"
   id="svg36"
   sodipodi:docname="trade.svg"
   inkscape:version="0.92.3 (2405546, 2018-03-11)">
  <metadata
     id="metadata42">
    <rdf:RDF>
      <cc:Work
         rdf:about="">
        <dc:format>image/svg+xml</dc:format>
        <dc:type
           rdf:resource="http://purl.org/dc/dcmitype/StillImage" />
        <dc:title></dc:title>
      </cc:Work>
    </rdf:RDF>
  </metadata>
  <defs
     id="defs40" />
  <sodipodi:namedview
     pagecolor="#ffffff"
     bordercolor="#666666"
     borderopacity="1"
     objecttolerance="10"
     gridtolerance="10"
     guidetolerance="10"
     inkscape:pageopacity="0"
     inkscape:pageshadow="2"
     inkscape:window-width="1920"
     inkscape:window-height="1018"
     id="namedview38"
     showgrid="false"
     inkscape:zoom="0.25132109"
     inkscape:cx="769.47721"
     inkscape:cy="464.51978"
     inkscape:window-x="-8"
     inkscape:window-y="-8"
     inkscape:window-maximized="1"
     inkscape:current-layer="svg36" />
  <style
     type="text/css"
     id="style2">
	.st0{fill:#ECC19C;stroke:#000;}
	.st1{fill:none;stroke:#000;}
	.st2{fill:none;stroke:#000;stroke-linecap:round;}
	.st3{fill:#F2F2F2;stroke:#000;}
	.st4{fill:#42210B;stroke:#000;}
	.st5{fill:#9E005D;}
</style>
  <g
     id="g4178"
     transform="matrix(0.11690535,0,0,0.11690535,408.94732,-0.87119266)">
    <path
       id="rect4163"
       d="m 1213.3,16.361 c -28.115,0.20292 -56.225,5.9937 -81.856,17.019 -61.9,28.79 -95.05,93.891 -153.63,127.39 -43.7,26.67 -96.6,32.82 -146.81,30.23 -72.03,-2.35 -150.69,13.66 -202.51,67.48 -43.59,44.32 -58.081,110.51 -49.711,170.74 10.5,99.8 67.57,184.89 112.45,271.63 22.36,46.38 46.53,92.21 65.22,140.22 -10.88,2.58 -22.42,0.0696 -33.52,0.87968 -32.58,-2.56 -63.52,22.591 -69.73,54.291 -7.41,34.61 17.76,71.63 52.35,78.23 4.79,-2.78 6.05,4.4703 2.05,4.1703 -28.34,4.99 -51.351,29.55002 -55.191,57.95002 -4.74,33.87 20.58,67.68 53.82,74.2 21.62,3.2 43.661,-0.6009 65.341,2.1391 -0.71,0.87 -1.5297,1.6506 -2.4297,2.3406 -206.12,80.39 -388.61,219.76 -520.78,397.09 -154.04,204.1 -239.02,459.7 -236.36,715.6 0.79,86.89 -1.6003,173.87 1.2297,260.69 2.59,134.43 10.69,270.91 49.68,400.38 29.01,93.9 76.811,183.37 146.84,253.18 66.49,67.41 149.2,116.98 236.56,152.45 219.1,87.47 458.4,105.12 691.81,111.28 224.99,1.31 452.32,-6.5003 672.03,-59.82 146.37,-36.65 292.91,-97.249 399.48,-207.54 67.77,-68.91 114.62,-156.15 142.87,-248.11 26.3,-84.72 38.23,-173.13 44.67,-261.36 9.66,-138.13 6.0991,-276.72 6.8891,-415.13 -1.17,-26.5 -1.1697,-53.061 -4.7797,-79.411 -16.76,-279.37 -142.11,-550.18 -340.29,-747.57 -44.5,-44.2 -90.95,-87.461 -142.95,-123.08 -53.08,-59.27 -110.32,-115.56 -175.96,-161.07 -1.48,-1.08 -3.7594,-2.2912 -2.9594,-4.4812 12.69,-10.22 22.51,-24.6 25.45,-40.8 8.36,-35.8 -19.221,-73.75002 -55.111,-79.08002 -3.56,0.38 -2.9291,-4.4394 0.3609,-3.7094 43.18,-5.35 70.739,-59.041 48.239,-96.891 -15.12,-31.55 -52.649,-40.289 -84.559,-36.859 20.6,-52.06 46.46,-102.01 71.48,-152.08 27.55,-55.15 61.201,-107.43 82.441,-165.56 20.22,-54.8 32.739,-114.66 20.959,-172.83 -11.82,-70.56 -69.619,-126.71 -137.39,-145.45 -39.58,-14.09 -82.4,-15.14 -124,-14.15 -46.35,1.65 -94.651,-5.7497 -134.78,-30.23 -55.89,-31.85 -88.259,-92.27 -144.94,-123.05 -28.278,-14.641 -60.15,-21.589 -92.014,-21.359 z"
       inkscape:connector-curvature="0"
       style="fill:#c29945" />
    <path
       id="path6-7"
       d="m 2136.2,256.44 c -23,65.08 -41,131.81 -62.3,197.5 -57,172.2 -195.6,308.52 -357.9,384.56 -174.7,84.29 -373.3,111.05 -565.6,97.35 -97.4,-7.8 -194.05,-27.5 -286.36,-59.79 27.95,57.98 58.16,115.27 81.52,175.24 381.24,-0.1 762.54,-0.1 1143.8,0 25.7,-65.04 58,-127.47 89.3,-190.06 34.5,-68.94 76.5,-134.29 103.1,-206.95 25.3,-68.5 40.9,-143.33 26.2,-216.04 -14.8,-88.2 -87,-158.39 -171.8,-181.81 z m 437.5,1477.4 c 96,204 144.2,429.6 141.3,654.9 -2.8,266.3 13.5,539.1 -59,798.5 -36.9,130.6 -104.2,254.2 -203.6,347.7 -89,85.3 -199.2,145.3 -313.8,188.7 -280.9,102.5 -583.9,120.8 -880.1,126.3 -156.6,0.4 -313.48,-4 -469.34,-20.3 -246.86,-27.1 -500.76,-78.1 -710.52,-218.3 36.26,117.4 96.01,229.3 183.55,316.5 83.11,84.3 186.5,146.2 295.7,190.6 273.87,109.3 573.01,131.4 864.81,139.1 281.2,1.6 565.3,-8.2 840,-74.8 182.9,-45.8 366.1,-121.6 499.3,-259.4 84.7,-86.2 143.3,-195.2 178.6,-310.2 32.9,-105.9 47.8,-216.4 55.9,-326.7 12,-172.6 7.6,-345.9 8.6,-518.9 -1.5,-33.1 -1.5,-66.3 -6,-99.2 -21,-349.3 -177.6,-687.8 -425.4,-934.5 z"
       transform="scale(0.8)"
       inkscape:connector-curvature="0"
       style="fill:#a37f36" />
    <path
       id="path8-9"
       d="m 2112.4,555.33 c 0.7,3.27 -3.4,12.85 -3.4,18.58 -3.6,-4.92 -2.2,-14.75 3.4,-18.58 z"
       inkscape:connector-curvature="0"
       style="fill:#fed573" />
    <path
       id="path10"
       d="m 756.45,841.07 c 305.05,-0.12 610.05,-0.12 915.05,0 31.9,-3.43 69.4,5.31 84.6,36.86 22.5,37.85 -5.1,91.54 -48.3,96.89 -3.3,-0.73 -3.9,4.09 -0.3,3.71 35.9,5.33 63.4,43.27 55.1,79.07 -3,16.2 -12.8,30.6 -25.5,40.8 -0.8,2.2 1.5,3.4 3,4.5 65.6,45.5 122.9,101.8 175.9,161.1 125.3,151.7 196.3,340.4 237.4,530.9 5.3,22.1 -10.2,45.7 -32,50.7 -23.6,7.2 -49.9,-10.4 -53.4,-34.6 -24.7,-112.2 -59.4,-222.9 -111.4,-325.6 -52,-102.2 -122.2,-197.2 -211.6,-269.2 60.2,116.9 95.2,246.6 102.8,378 8,117.3 -2.6,235.3 -23.8,350.8 -1.3,18.6 -10.1,38.5 -29,45 -28.2,12.8 -62.1,-12.4 -59.8,-42.8 16.5,-90.7 28.8,-182.8 27.8,-275.2 1.8,-124.6 -20.9,-250.4 -71.3,-364.7 -30.6,-69.5 -71.2,-134.5 -118.6,-193.8 -267.1,-1.2 -534.3,-0.1 -801.53,-0.6 -21.68,-2.7 -43.72,1.1 -65.34,-2.1 -33.24,-6.5 -58.56,-40.3 -53.82,-74.2 3.84,-28.4 26.85,-52.97 55.19,-57.96 4,0.3 2.74,-6.95 -2.05,-4.17 -34.59,-6.6 -59.76,-43.62 -52.35,-78.23 6.21,-31.7 37.15,-56.85 69.73,-54.29 11.1,-0.81 22.64,1.7 33.52,-0.88 z"
       inkscape:connector-curvature="0"
       style="fill:#fed573" />
    <path
       id="path4175"
       d="m 1558.3,2724.5 q -83.496,48.34 -174.9,72.949 -90.527,24.609 -188.96,24.609 -230.27,0 -388.48,-114.26 -157.32,-115.14 -223.24,-330.47 H 392 l 77.344,-171.39 h 86.133 q -0.8789,-12.305 -1.7578,-25.488 0,-14.062 0,-38.672 0,-25.488 0,-39.551 0.87891,-14.062 1.7578,-27.246 h -163.48 l 77.344,-171.39 h 113.38 q 67.676,-216.21 224.12,-329.59 157.32,-113.38 387.6,-113.38 98.438,0 188.96,24.609 91.406,24.609 174.9,72.949 v 271.58 q -71.191,-68.555 -152.05,-102.83 -80.859,-35.156 -167.87,-35.156 -111.62,0 -190.72,54.492 -78.223,53.613 -117.77,157.32 h 473.73 l -75.586,171.39 h -433.3 q -1.7578,14.062 -2.6367,29.883 0,15.82 0,47.461 0,11.426 0,25.488 0.8789,13.184 1.7578,28.125 h 377.05 l -78.223,171.39 h -262.79 q 43.945,107.23 120.41,160.84 77.344,53.613 188.09,53.613 87.012,0 166.11,-34.277 79.98,-35.156 153.81,-104.59 v 271.58 z"
       inkscape:connector-curvature="0"
       style="fill:#624d20" />
  </g>
  <path
     class="st0"
     d="m 522.07188,622.0753 c 8.73803,0.97095 48.54491,54.3704 -2.91271,63.10843 -51.45763,8.7381 -39.80688,-67.96292 2.91271,-63.10843 z"
     id="path4"
     inkscape:connector-curvature="0"
     style="fill:#ecc19c;stroke:#000000;stroke-width:9.70899105" />
  <path
     class="st0"
     d="m 82.254573,292.94057 c 0,0 226.219477,72.81743 240.782947,80.58458 14.56354,7.7672 111.65341,-39.80682 158.25661,-39.80682 46.60312,0 101.94436,62.13749 140.78034,62.13749 38.83594,0 303.89138,-77.67191 303.89138,-77.67191 v 224.2777 l -177.67449,33.98143 -10.67993,-44.66136 -44.66137,11.65082 c 6.79633,5.82537 10.67993,31.06878 -1.94177,38.83598 -12.6217,7.76715 -24.27246,2.91266 -31.06878,2.91266 8.7381,14.56354 11.65082,30.09789 -2.91271,44.66136 -14.56347,14.56347 -30.09784,1.94183 -38.83593,0 3.8836,8.7381 7.76721,29.12701 -7.76721,36.89416 -15.53435,7.76721 -167.96552,-78.6428 -245.63744,-90.29362 C 287.11431,564.79229 82.254573,518.1891 82.254573,518.1891 Z"
     id="path6"
     inkscape:connector-curvature="0"
     style="fill:#ecc19c;stroke:#000000;stroke-width:9.70899105" />
  <path
     class="st1"
     d="m 465.75971,333.71833 c -8.7381,8.7381 -101.94443,100.00259 -107.76981,104.85708 -5.82537,5.82538 -9.70898,21.35979 8.7381,35.92328 18.44708,14.56347 32.03966,0.97088 42.71959,-9.709 7.76714,-7.7672 44.66136,-38.83598 62.13749,-53.39945 5.82544,-4.85449 14.56354,-5.82544 21.35979,-0.97089 L 691.97918,543.4325"
     id="path8"
     inkscape:connector-curvature="0"
     style="fill:none;stroke:#000000;stroke-width:9.70899105" />
  <line
     class="st2"
     x1="548.28607"
     y1="518.18927"
     x2="659.93951"
     y2="586.15186"
     id="line10"
     style="fill:none;stroke:#000000;stroke-width:9.70899105;stroke-linecap:round" />
  <line
     class="st2"
     x1="516.24652"
     y1="561.8797"
     x2="617.21991"
     y2="630.81329"
     id="line12"
     style="fill:none;stroke:#000000;stroke-width:9.70899105;stroke-linecap:round" />
  <polygon
     class="st3"
     points="88.5,47.9 82.7,24.5 69.7,27.7 74.8,50.6 "
     id="polygon14"
     style="fill:#f2f2f2;stroke:#000000"
     transform="matrix(9.7089905,0,0,9.7089905,21.087977,95.848042)" />
  <polygon
     class="st4"
     points="93,46 93,22.8 83,25.6 88.5,46.9 "
     id="polygon16"
     style="fill:#42210b;stroke:#000000"
     transform="matrix(9.7089905,0,0,9.7089905,21.087977,95.848042)" />
  <polygon
     class="st3"
     points="24.6,49.2 31.2,26.8 19.8,23.4 13,46.8 "
     id="polygon18"
     style="fill:#f2f2f2;stroke:#000000"
     transform="matrix(9.7089905,0,0,9.7089905,21.087977,95.848042)" />
  <polygon
     class="st4"
     points="13.5,45.1 6.3,43.5 6.3,20.3 19.4,24.5 "
     id="polygon20"
     style="fill:#42210b;stroke:#000000"
     transform="matrix(9.7089905,0,0,9.7089905,21.087977,95.848042)" />
  <path
     class="st0"
     d="m 317.21214,567.70495 c -7.7672,19.41802 -29.12694,66.99204 0,72.81748 29.12701,6.79627 27.18517,-23.30162 35.92327,-44.66136 8.7381,-23.30163 7.76722,-49.51585 -4.85449,-52.42857 -16.5053,-3.88361 -26.21428,12.6217 -31.06878,24.27245 z"
     id="path22"
     inkscape:connector-curvature="0"
     style="fill:#ecc19c;stroke:#000000;stroke-width:9.70899105" />
  <path
     class="st0"
     d="m 406.53487,609.45366 c -7.76721,19.41796 -29.12694,66.99204 0,72.81742 29.12694,6.79626 27.18517,-23.30157 35.92327,-44.66136 8.73809,-23.30157 7.76721,-49.51586 -4.85449,-52.42858 -17.47619,-4.85449 -26.21429,12.62171 -31.06878,24.27252 z"
     id="path24"
     inkscape:connector-curvature="0"
     style="fill:#ecc19c;stroke:#000000;stroke-width:9.70899105" />
  <path
     class="st0"
     d="m 454.10895,621.1044 c -7.76721,19.41803 -29.127,66.99205 0,72.81743 29.12694,6.79632 27.18518,-23.30157 35.92321,-44.66137 8.7381,-23.30157 7.7672,-49.51578 -4.85449,-52.42851 -17.47613,-3.88359 -26.21423,12.62171 -31.06872,24.27245 z"
     id="path26"
     inkscape:connector-curvature="0"
     style="fill:#ecc19c;stroke:#000000;stroke-width:9.70899105" />
  <path
     class="st0"
     d="m 361.87351,587.12297 c -7.76722,23.30157 -29.12695,77.67192 0,85.43913 29.12701,7.76714 27.18516,-28.15613 35.92326,-52.42858 8.7381,-28.15606 7.76722,-58.25395 -4.85449,-62.13755 -17.47618,-3.8836 -26.21428,15.53442 -31.06877,29.127 z"
     id="path28"
     inkscape:connector-curvature="0"
     style="fill:#ecc19c;stroke:#000000;stroke-width:9.70899105" />
  <g
     id="g34"
     transform="matrix(8.8127486,0,0,8.8127486,56.815575,-22.994719)" />
</svg>
