<?xml version="1.0" encoding="UTF-8" standalone="no"?>
<svg
   xmlns:dc="http://purl.org/dc/elements/1.1/"
   xmlns:cc="http://creativecommons.org/ns#"
   xmlns:rdf="http://www.w3.org/1999/02/22-rdf-syntax-ns#"
   xmlns:svg="http://www.w3.org/2000/svg"
   xmlns="http://www.w3.org/2000/svg"
   xmlns:sodipodi="http://sodipodi.sourceforge.net/DTD/sodipodi-0.dtd"
   xmlns:inkscape="http://www.inkscape.org/namespaces/inkscape"
   viewBox="0 0 1000 700"
   height="700"
   width="1000"
   xml:space="preserve"
   id="svg2"
   version="1.1"
   sodipodi:docname="work.svg"
   inkscape:version="0.92.3 (2405546, 2018-03-11)"><sodipodi:namedview
     pagecolor="#ffffff"
     bordercolor="#666666"
     borderopacity="1"
     objecttolerance="10"
     gridtolerance="10"
     guidetolerance="10"
     inkscape:pageopacity="0"
     inkscape:pageshadow="2"
     inkscape:window-width="1920"
     inkscape:window-height="1018"
     id="namedview73"
     showgrid="false"
     inkscape:zoom="0.44198077"
     inkscape:cx="190.4962"
     inkscape:cy="751.86225"
     inkscape:window-x="-8"
     inkscape:window-y="-8"
     inkscape:window-maximized="1"
     inkscape:current-layer="svg2" /><metadata
     id="metadata8"><rdf:RDF><cc:Work
         rdf:about=""><dc:format>image/svg+xml</dc:format><dc:type
           rdf:resource="http://purl.org/dc/dcmitype/StillImage" /><dc:title></dc:title></cc:Work></rdf:RDF></metadata><defs
     id="defs6" /><g
     transform="matrix(1.3333333,0,0,-1.3333333,140.2776,785.97662)"
     id="g10"><g
       transform="scale(0.1)"
       id="g12"><path
         id="path64"
         style="fill:#46454b;fill-opacity:1;fill-rule:evenodd;stroke:none"
         d="M 487.344,3912.8 H 1698.25 c 19.68,0 35.79,-16.1 35.79,-35.78 v 0 c 0,-19.69 -16.11,-35.79 -35.79,-35.79 H 487.344 c -19.688,0 -35.789,16.1 -35.789,35.79 v 0 c 0,19.68 16.101,35.78 35.789,35.78"
         inkscape:connector-curvature="0" /><path
         id="path66"
         style="fill:#e5953c;fill-opacity:1;fill-rule:evenodd;stroke:none"
         d="m 2594.14,829.648 c 1428.8,0 2594.14,28.411 2594.14,63.25 0,34.821 -1165.34,63.231 -2594.14,63.231 C 1165.34,956.129 0,927.719 0,892.898 c 0,-34.839 1165.34,-63.25 2594.14,-63.25"
         inkscape:connector-curvature="0" /><path
         id="path68"
         style="fill:#2d2b2e;fill-opacity:1;fill-rule:evenodd;stroke:none"
         d="m 4083.65,2887.96 c 8.68,32.46 -10.6,65.84 -43.08,74.51 -32.49,8.67 -65.84,-10.61 -74.51,-43.09 l -158.45,-591.32 -267.82,-2.23 c -33.51,-0.26 -60.49,-27.66 -60.22,-61.19 0.26,-33.52 27.65,-60.49 61.18,-60.24 l 309.75,2.6 c 28.42,-1.87 55.13,16.48 62.76,45.04 l 170.39,635.92"
         inkscape:connector-curvature="0" /><path
         id="path70"
         style="fill:#6246a6;fill-opacity:1;fill-rule:evenodd;stroke:none"
         d="m 4025.68,2818.21 c 52.83,0 95.94,43.09 95.94,95.95 0,52.84 -43.11,95.94 -95.94,95.94 -52.86,0 -95.95,-43.1 -95.95,-95.94 0,-52.86 43.09,-95.95 95.95,-95.95"
         inkscape:connector-curvature="0" /><path
         id="path72"
         style="fill:#2d2b2e;fill-opacity:1;fill-rule:evenodd;stroke:none"
         d="m 2254.92,2887.96 c -8.67,32.46 10.61,65.84 43.09,74.51 32.48,8.67 65.84,-10.61 74.51,-43.09 l 158.45,-591.32 267.81,-2.23 c 33.51,-0.26 60.49,-27.66 60.23,-61.19 -0.26,-33.52 -27.66,-60.49 -61.18,-60.24 l -309.76,2.6 c -28.42,-1.87 -55.13,16.48 -62.76,45.04 l -170.39,635.92"
         inkscape:connector-curvature="0" /><path
         id="path74"
         style="fill:#573da0;fill-opacity:1;fill-rule:evenodd;stroke:none"
         d="m 2312.92,2818.21 c 52.84,0 95.94,43.09 95.94,95.95 0,52.84 -43.1,95.94 -95.94,95.94 -52.86,0 -95.95,-43.1 -95.95,-95.94 0,-52.86 43.09,-95.95 95.95,-95.95"
         inkscape:connector-curvature="0" /><path
         id="path76"
         style="fill:#2d2b2e;fill-opacity:1;fill-rule:evenodd;stroke:none"
         d="m 2979.01,2466.67 h 380.56 v 283.8 h -380.56 v -283.8"
         inkscape:connector-curvature="0" /><path
         id="path78"
         style="fill:#d5d0db;fill-opacity:1;fill-rule:evenodd;stroke:none"
         d="m 3091.89,1637.85 h 154.79 v 395.06 h -154.79 v -395.06"
         inkscape:connector-curvature="0" /><path
         id="path80"
         style="fill:#2d2b2e;fill-opacity:1;fill-rule:evenodd;stroke:none"
         d="m 2422.27,1063.81 h 1502.86 v 225.75 H 2422.27 v -225.75"
         inkscape:connector-curvature="0" /><path
         id="path82"
         style="fill:#2d2b2e;fill-opacity:1;fill-rule:evenodd;stroke:none"
         d="m 2357.77,892.898 c 66.61,0 120.94,75.344 120.94,167.702 0,92.35 -54.33,167.7 -120.94,167.7 -66.61,0 -120.94,-75.35 -120.94,-167.7 0,-92.358 54.33,-167.702 120.94,-167.702"
         inkscape:connector-curvature="0" /><path
         id="path84"
         style="fill:#2d2b2e;fill-opacity:1;fill-rule:evenodd;stroke:none"
         d="m 2481.92,892.898 c 66.62,0 120.95,75.344 120.95,167.702 0,92.35 -54.33,167.7 -120.95,167.7 -66.6,0 -120.93,-75.35 -120.93,-167.7 0,-92.358 54.33,-167.702 120.93,-167.702"
         inkscape:connector-curvature="0" /><path
         id="path86"
         style="fill:#2d2b2e;fill-opacity:1;fill-rule:evenodd;stroke:none"
         d="m 3856.65,892.898 c 66.61,0 120.92,75.344 120.92,167.702 0,92.35 -54.31,167.7 -120.92,167.7 -66.62,0 -120.94,-75.35 -120.94,-167.7 0,-92.358 54.32,-167.702 120.94,-167.702"
         inkscape:connector-curvature="0" /><path
         id="path88"
         style="fill:#2d2b2e;fill-opacity:1;fill-rule:evenodd;stroke:none"
         d="m 3980.81,892.898 c 66.61,0 120.93,75.344 120.93,167.702 0,92.35 -54.32,167.7 -120.93,167.7 -66.61,0 -120.94,-75.35 -120.94,-167.7 0,-92.358 54.33,-167.702 120.94,-167.702"
         inkscape:connector-curvature="0" /><path
         id="path90"
         style="fill:#2d2b2e;fill-opacity:1;fill-rule:evenodd;stroke:none"
         d="m 3112.43,892.898 c 66.61,0 120.93,75.344 120.93,167.702 0,92.35 -54.32,167.7 -120.93,167.7 -66.61,0 -120.95,-75.35 -120.95,-167.7 0,-92.358 54.34,-167.702 120.95,-167.702"
         inkscape:connector-curvature="0" /><path
         id="path92"
         style="fill:#2d2b2e;fill-opacity:1;fill-rule:evenodd;stroke:none"
         d="m 3236.59,892.898 c 66.61,0 120.94,75.344 120.94,167.702 0,92.35 -54.33,167.7 -120.94,167.7 -66.62,0 -120.95,-75.35 -120.95,-167.7 0,-92.358 54.33,-167.702 120.95,-167.702"
         inkscape:connector-curvature="0" /><path
         id="path94"
         style="fill:#2d2b2e;fill-opacity:1;fill-rule:evenodd;stroke:none"
         d="m 3024.16,1239.57 h 290.26 v 332.17 h -290.26 v -332.17"
         inkscape:connector-curvature="0" /><path
         id="path96"
         style="fill:#2d2b2e;fill-opacity:1;fill-rule:evenodd;stroke:none"
         d="m 3062.06,1507.24 h 214.46 v 174.15 h -214.46 v -174.15"
         inkscape:connector-curvature="0" /><path
         id="path98"
         style="fill:#2d2b2e;fill-opacity:1;fill-rule:evenodd;stroke:none"
         d="m 3062.06,1987.78 h 214.46 v 174.14 h -214.46 v -174.14"
         inkscape:connector-curvature="0" /><path
         id="path100"
         style="fill:#2d2b2e;fill-opacity:1;fill-rule:evenodd;stroke:none"
         d="m 2525.46,2132.91 h 1287.65 v 174.13 H 2525.46 v -174.13"
         inkscape:connector-curvature="0" /><path
         id="path102"
         style="fill:#6246a6;fill-opacity:1;fill-rule:evenodd;stroke:none"
         d="m 2479.55,2523.12 h 1379.48 c 69.17,0 125.77,-56.6 125.77,-125.76 v -0.01 c 0,-69.18 -56.6,-125.78 -125.77,-125.78 H 2479.55 c -69.18,0 -125.78,56.6 -125.78,125.78 v 0.01 c 0,69.16 56.6,125.76 125.78,125.76"
         inkscape:connector-curvature="0" /><path
         id="path104"
         style="fill:#493498;fill-opacity:1;fill-rule:evenodd;stroke:none"
         d="m 2479.55,2523.12 h 437.74 c -98.73,0 -85.61,-251.55 0,-251.55 h -437.74 c -69.18,0 -125.78,56.6 -125.78,125.78 v 0.01 c 0,69.16 56.6,125.76 125.78,125.76"
         inkscape:connector-curvature="0" /><path
         id="path106"
         style="fill:#6246a6;fill-opacity:1;fill-rule:evenodd;stroke:none"
         d="m 2990.04,4267.86 h 358.49 c 169.09,0 308.9,-129.31 322.05,-297.89 l 76.08,-974.07 c 5.9,-75.52 -17.46,-142.76 -68.89,-198.39 -51.45,-55.6 -116.65,-84.11 -192.41,-84.11 h -632.14 c -75.76,0 -140.97,28.51 -192.41,84.11 -51.44,55.63 -74.79,122.87 -68.89,198.39 l 76.07,974.07 c 13.16,168.58 152.96,297.89 322.05,297.89"
         inkscape:connector-curvature="0" /><path
         id="path108"
         style="fill:#493498;fill-opacity:1;fill-rule:evenodd;stroke:none"
         d="m 3701.95,3568.49 27.62,-353.73 H 2609.01 l 27.64,353.73 h 1065.3"
         inkscape:connector-curvature="0" /><path
         id="path110"
         style="fill:#6d4eab;fill-opacity:1;fill-rule:evenodd;stroke:none"
         d="m 3021.35,4225.67 h 295.87 c 139.58,0 254.95,-113.7 265.83,-261.94 l 62.79,-856.52 c 4.86,-66.43 -14.39,-125.54 -56.86,-174.45 -42.46,-48.89 -96.28,-73.97 -158.81,-73.97 H 2908.4 c -62.53,0 -116.34,25.08 -158.81,73.97 -42.45,48.91 -61.72,108.02 -56.86,174.45 l 62.79,856.52 c 10.88,148.24 126.25,261.94 265.83,261.94"
         inkscape:connector-curvature="0" /><path
         id="path112"
         style="fill:#573da0;fill-opacity:1;fill-rule:evenodd;stroke:none"
         d="m 3612.04,3568.49 25.9,-353.73 h -937.31 l 25.93,353.73 h 885.48"
         inkscape:connector-curvature="0" /><path
         id="path114"
         style="fill:#f7af59;fill-opacity:1;fill-rule:evenodd;stroke:none"
         d="M 238.629,3572.49 H 4949.65 v 268.74 H 238.629 v -268.74"
         inkscape:connector-curvature="0" /><path
         id="path116"
         style="fill:#e5953c;fill-opacity:1;fill-rule:evenodd;stroke:none"
         d="M 2487.43,3572.48 H 337.438 V 892.891 H 2487.43 Z m 2363.42,0 H 4629.53 V 892.891 h 221.32 v 2679.589 0"
         inkscape:connector-curvature="0" /><path
         id="path118"
         style="fill:#d4842d;fill-opacity:1;fill-rule:evenodd;stroke:none"
         d="M 2487.43,3572.48 H 337.438 v -189.7 H 2487.43 Z m 2363.42,0 h -221.32 v -189.7 h 221.32 v 189.7 0"
         inkscape:connector-curvature="0" /><path
         id="path120"
         style="fill:#9c9aa2;fill-opacity:1;fill-rule:evenodd;stroke:none"
         d="m 1615.7,3912.8 h 857.19 c 19.69,0 35.78,-16.1 35.78,-35.78 v 0 c 0,-19.69 -16.09,-35.79 -35.78,-35.79 H 1615.7 c -19.69,0 -35.79,16.1 -35.79,35.79 v 0 c 0,19.68 16.1,35.78 35.79,35.78"
         inkscape:connector-curvature="0" /><path
         id="path122"
         style="fill:#46454b;fill-opacity:1;fill-rule:evenodd;stroke:none"
         d="m 1671.79,3886.85 h 104.4 c 6.24,0 11.35,-5.11 11.35,-11.34 v 0 c 0,-6.25 -5.11,-11.35 -11.35,-11.35 h -104.4 c -6.25,0 -11.35,5.1 -11.35,11.35 v 0 c 0,6.23 5.1,11.34 11.35,11.34 z m 152.52,0 h 104.4 c 6.25,0 11.35,-5.11 11.35,-11.34 v 0 c 0,-6.25 -5.1,-11.35 -11.35,-11.35 h -104.4 c -6.24,0 -11.35,5.1 -11.35,11.35 v 0 c 0,6.23 5.11,11.34 11.35,11.34 v 0"
         inkscape:connector-curvature="0" /><path
         id="path124"
         style="fill:#2d2b2e;fill-opacity:1;fill-rule:evenodd;stroke:none"
         d="m 442.809,3907.28 -267.852,814.26 c -6.148,18.69 4.106,39.03 22.809,45.18 v 0 c 3.89,1.27 7.839,1.84 11.726,1.77 H 1298.45 l 275.31,-885.46 H 481.84 v 0 c -16.817,-2.38 -33.543,7.58 -39.031,24.25"
         inkscape:connector-curvature="0" /><path
         id="path126"
         style="fill:#9c9aa2;fill-opacity:1;fill-rule:evenodd;stroke:none"
         d="m 1543.5,3907.28 -267.86,814.26 c -6.15,18.69 4.11,39.03 22.81,45.18 v 0 c 18.7,6.15 39.02,-4.12 45.18,-22.81 l 267.85,-814.27 c 6.16,-18.7 -4.11,-39.03 -22.81,-45.18 v 0 c -18.69,-6.15 -39.02,4.12 -45.17,22.82"
         inkscape:connector-curvature="0" /><path
         id="path128"
         style="fill:#46454b;fill-opacity:1;fill-rule:evenodd;stroke:none"
         d="m 790.242,4429.54 c 103.684,0 202.938,-74.77 221.698,-166.99 18.75,-92.21 -50.085,-166.97 -153.764,-166.97 -103.68,0 -202.938,74.76 -221.692,166.97 -18.757,92.22 50.079,166.99 153.758,166.99"
         inkscape:connector-curvature="0" /><path
         id="path130"
         style="fill:#46454b;fill-opacity:1;fill-rule:evenodd;stroke:none"
         d="m 4242.74,3970.07 h 467.34 v -42.49 h -467.34 v 42.49"
         inkscape:connector-curvature="0" /><path
         id="path132"
         style="fill:#fbca07;fill-opacity:1;fill-rule:evenodd;stroke:none"
         d="m 4166.16,3841.23 h 620.51 v 110.08 h -620.51 v -110.08"
         inkscape:connector-curvature="0" /><path
         id="path134"
         style="fill:#f39c0f;fill-opacity:1;fill-rule:evenodd;stroke:none"
         d="m 4623.62,3841.23 h 163.05 v 110.08 h -163.05 v -110.08"
         inkscape:connector-curvature="0" /><path
         id="path136"
         style="fill:#46454b;fill-opacity:1;fill-rule:evenodd;stroke:none"
         d="m 4113.8,3864.35 h 725.23 v -23.12 H 4113.8 v 23.12"
         inkscape:connector-curvature="0" /><path
         id="path138"
         style="fill:#fbca07;fill-opacity:1;fill-rule:evenodd;stroke:none"
         d="m 4429.73,3970.07 v 883.77 c 0,205.74 -100.95,380.75 -279.16,483.66 l -182.56,105.39 46.67,80.6 182.56,-105.4 c 206.54,-119.24 325.85,-325.71 325.85,-564.25 v -883.77 h -93.36"
         inkscape:connector-curvature="0" /><path
         id="path140"
         style="fill:#df8c16;fill-opacity:1;fill-rule:evenodd;stroke:none"
         d="m 3779.62,5463.92 82.87,144.63 c 29.96,52.27 97.22,70.53 149.49,40.58 h 0.01 c 52.27,-29.95 70.51,-97.23 40.57,-149.49 l -82.87,-144.62 -190.07,108.9"
         inkscape:connector-curvature="0" /><path
         id="path142"
         style="fill:#2d2b2e;fill-opacity:1;fill-rule:evenodd;stroke:none"
         d="m 3717.48,5433.68 54.44,95.03 257.56,-147.57 -54.45,-95.04 -257.55,147.58"
         inkscape:connector-curvature="0" /><path
         id="path144"
         style="fill:#fab40a;fill-opacity:1;fill-rule:evenodd;stroke:none"
         d="m 3444.69,5372.73 -68.16,-118.96 615.69,-352.77 68.17,118.96 c 55.13,96.23 21.62,219.68 -74.6,274.83 l -266.26,152.55 c -96.24,55.14 -219.7,21.62 -274.84,-74.61"
         inkscape:connector-curvature="0" /></g></g></svg>